<?xml version="1.0" encoding="UTF-8"?><svg id="Layer_3" xmlns="http://www.w3.org/2000/svg" viewBox="0 0 1627 1265"><defs><style>.cls-1{fill:#013035;}.cls-2{fill:#d6d2c4;}</style></defs><rect class="cls-1" x="-.23" width="1627" height="1265"/><path class="cls-2" d="M936.58,910.13c0-.33,0-.67-.05-.99-.16-1.21-.61-2.27-1.34-3.17-1.47-1.82-3.48-2.81-5.96-2.96-.9-.05-1.8,0-2.64,.07-3.74,.29-7.41-.06-10.82-.48-3.12-.38-5.99-1.44-8.77-3.24-.78-.5-1.42-1-1.96-1.51-1.95-1.86-3.37-3.54-4.49-5.31-1.09-1.72-2.15-3.53-3.25-5.53-1.71-3.12-3.04-6.5-3.95-10.04-1.25-4.85-2.38-9.81-3.47-14.61-.36-1.6-.73-3.2-1.1-4.8-.83-3.6-1.6-6.83-2.6-10.02-1.54-4.88-3.84-8.7-7.04-11.67-.94-.88-1.89-1.75-2.84-2.63-.38-.35-.77-.7-1.15-1.05-.41-.37-.82-.74-1.22-1.11-.16-.15-.27-.42-.27-.68,0-.16,.04-.26,.08-.3,.14-.13,.27-.28,.4-.42,.16-.18,.3-.34,.46-.46,3.39-2.5,5.94-5.65,8.73-9.61,2.08-2.95,3.93-6.27,5.99-10.76,2.94-6.4,4.4-12.57,4.46-18.87,.01-.97,0-1.94,0-3.33v-2.71c0-.2,0-.49,0-.84,0-1.09,.02-2.91,.14-4.69,.21-3.03,.73-5.98,1.45-9.48,.27-1.3,.71-2.67,1.34-4.2,.57-1.37,1.71-2.23,3.61-2.7,.08-.02,.22-.01,.41,.03,1.41,.29,2.43,.79,3.14,1.55,1.02,1.08,2.06,2.32,3.28,3.9,2.61,3.38,5.53,5.86,8.94,7.59,.55,.28,1.09,.59,1.67,.92,1.79,1.03,3.73,1.35,5.93,.98,1.18-.2,2.2-.67,3.12-1.44,1.04-.88,1.79-1.98,2.29-3.37,.66-1.85,.6-3.6-.19-5.37-.79-1.78-1.88-3.14-3.36-4.16l-.16-.11c-.13-.1-.27-.19-.41-.28-2.7-1.56-5.13-3.77-7.43-6.77l-.17-.23c-.46-.61-.95-1.24-1.49-1.81-3.21-3.38-6.6-5.59-10.35-6.75-.53-.16-1.05-.34-1.58-.53-.49-.17-.98-.34-1.47-.49-4-1.26-7.3-1.51-10.41-.79l-.17,.04c-.59,.14-1.2,.27-1.77,.53-4.34,1.95-7.29,5.14-8.76,9.48-.89,2.61-1.39,5.21-1.49,7.71-.11,2.85-.3,5.01-.6,7-.76,5.02-1.29,10.14-1.8,15.09l-.03,.28c-.35,3.41-.85,6.95-1.53,10.8-1,5.7-3.18,11.25-6.49,16.5-.77,1.23-1.74,2.31-2.88,3.22-2.47,1.98-4.63,3.48-6.81,4.73-.81,.47-1.59,.43-2.51-.11-2.08-1.23-3.74-2.8-4.93-4.67-2.89-4.55-4.91-9.26-6.01-13.99-.86-3.72-1.43-7.02-1.73-10.09l-.02-.25c-.45-4.55-.92-9.25-1.55-13.86-.48-3.45-.96-7.13-1.14-10.85-.11-2.2-.48-4.52-1.13-7.09-1.3-5.15-4.56-8.88-9.67-11.09-.42-.18-.88-.32-1.34-.4-3.41-.6-6.7-.4-9.79,.58-.54,.17-1.08,.38-1.61,.59-.69,.27-1.33,.52-2.01,.7-3.94,1.07-7.39,3.34-10.84,7.15-.64,.71-1.25,1.46-1.84,2.18-.35,.43-.7,.86-1.06,1.29-1.39,1.64-2.97,3.04-4.7,4.17l-.69,.45c-.31,.2-.62,.4-.93,.6-1.43,.94-2.51,2.24-3.42,4.11-1.37,2.83-.46,6.87,1.98,8.82l.17,.14c.3,.25,.61,.5,.99,.67,2.36,1.05,4.6,1.14,6.65,.28,4.62-1.94,8.24-4.55,11.06-7.98,.39-.48,.76-.97,1.13-1.46,.4-.54,.81-1.07,1.26-1.61,.66-.79,1.35-1.6,2.13-2.23,.83-.66,2.99-2.01,5.34-.3,.64,.46,1.13,1.06,1.46,1.77,.32,.68,.6,1.45,.86,2.34,.77,2.64,1.14,5.42,1.49,8.11,.11,.87,.23,1.74,.35,2.6,.22,1.5,.42,3.26,.27,5.02-.19,2.13-.11,4.28-.03,6.35,.03,.69,.05,1.38,.07,2.08,.09,3.93,.77,7.81,2.03,11.53,2.83,8.38,6.96,15.77,12.28,21.97l.33,.38c.45,.52,.9,1.04,1.34,1.57,.29,.35,.27,1.22-.15,1.68l-.16,.17c-.68,.72-1.35,1.44-2.06,2.14-1.62,1.61-2.99,3.54-4.16,5.9-.98,1.98-1.69,3.77-2.16,5.48-.59,2.17-1.22,4.5-1.79,6.87-.71,2.96-1.38,5.92-2.05,8.89-.97,4.29-1.97,8.73-3.09,13.06-.35,1.37-.8,2.67-1.28,4.04l-.07,.21c-1.52,4.4-3.91,8.28-6.26,11.82-2.67,4.02-5.75,6.66-9.4,8.06-.88,.34-1.93,.72-3,.99-2.91,.72-5.98,1.06-9.46,1.04-1.02,0-2.05-.03-3.07-.06-.91-.02-1.82-.05-2.72-.06-.82-.01-1.46,.05-2.03,.17-2.57,.55-4.36,1.89-5.32,3.99-1.06,2.31-1.02,4.75,.1,6.87,1.16,2.2,3.34,3.81,5.69,4.21,1.1,.19,2.21,.34,3.32,.49,1.62,.22,3.3,.45,4.92,.8,1.14,.24,2.36,.17,3.34,.11,2.07-.12,4.03-.5,5.81-1.12l2.33-.81c2.07-.72,4.13-1.43,6.19-2.17,.64-.23,1.26-.5,1.83-.82,3.88-2.15,6.65-4.15,8.96-6.48,1.65-1.65,3.75-3.89,5.42-6.5l.79-1.23c2.03-3.16,4.13-6.43,5.71-9.96,1.42-3.18,2.55-6.6,3.48-10.45,1.21-5.04,2.5-10.14,3.75-15.08l1.08-4.28c.9-3.57,2.23-7.07,4.08-10.7,1.22-2.41,2.88-4.48,5.08-6.32,.43-.36,1.51-.47,1.83-.25,.44,.3,.89,.6,1.34,.9,1.14,.75,2.31,1.53,3.35,2.41,2.21,1.88,3.84,3.96,5,6.37,.98,2.03,2.1,4.46,3.01,7.05,.75,2.13,1.3,4.36,1.84,6.52,.18,.71,.35,1.42,.54,2.13,.83,3.22,1.63,6.51,2.4,9.69,.43,1.77,.86,3.54,1.29,5.31,.81,3.28,1.72,6.11,2.79,8.64,2.03,4.8,4.84,9.54,8.58,14.49,4.64,6.13,10.41,10.35,17.14,12.54,.34,.11,.68,.21,1.03,.32,.86,.26,1.76,.53,2.56,.91,2.01,.95,4.16,1.33,6.24,1.7,.66,.12,1.32,.23,1.97,.37,.52,.11,1.03,.16,1.52,.16,.7,0,1.35-.11,1.94-.32,1.58-.57,3.21-.69,4.93-.82,1.06-.08,2.19-.19,3.27-.47,3.27-.85,6.52-3.61,6.39-7.88v-.34Z"/><path class="cls-2" d="M1446.62,890.82c-.78-2.58-2.29-4.62-4.48-6.05-1.05-.68-2.04-1.22-3.01-1.64-1.03-.44-2.1-.78-3.13-1.11l-.47-.15c-2.44-.78-4.97-1.16-7.45-1.54-5.02-.76-10.34-1.36-16.74-1.87-3.92-.32-8.47-.7-12.95-1.22-3.32-.39-7.17-.9-10.79-2.04-.07-.02-.15-.06-.24-.12,.2-.1,.42-.19,.64-.24l2.02-.53c2.58-.68,5.25-1.39,7.89-2.02l.74-.18c11.62-2.78,23.65-5.66,35.58-7.91,1.42-.27,2.66-.6,3.76-1.03,1.64-.63,2.79-1.88,3.33-3.62,.4-1.28,.25-2.66-.42-3.88-.68-1.24-1.86-2.22-3.09-2.56-1.02-.28-1.88-.36-2.69-.27-1.38,.17-2.81,.34-4.22,.62-2.99,.58-6.06,1.22-9.15,1.89-7.99,1.74-16.39,3.68-27.26,6.29-3.08,.74-6.58,1.58-9.97,2.64-1.5,.47-3.25,1.06-4.92,1.89-1.5,.75-2.71,1.58-3.7,2.55-3,2.95-3.51,7.11-1.3,10.6,.61,.97,1.4,1.86,2.35,2.66,1.33,1.12,2.83,2.04,4.59,2.82,1.62,.72,3.42,1.31,5.49,1.79,4.05,.95,8.28,1.62,12.55,2.01,1.43,.13,2.86,.27,4.28,.41,2.86,.28,5.81,.58,8.74,.76,3.07,.19,6.11,.56,9.2,.96,3.3,.42,6.71,.86,10.01,1.64,1.06,.25,2.01,.57,2.91,.97,.1,.05,.23,.15,.38,.26l.19,.14s.05,.09,.07,.03c-.21,.49-.48,.9-.82,1.26-1.29,1.36-2.91,2.59-4.94,3.77-1.94,1.12-4.01,2.12-6.16,2.97-3.44,1.37-6.97,2.58-10.48,3.6-7.81,2.27-16.36,3.93-27.72,5.4-6,.77-12.01,1.22-17.1,1.55-4.04,.26-7.98,.49-12.04,.48-3.73-.02-7.46-.01-11.19,0-3.42,0-6.84,0-10.26,0-9-.03-18.34-.66-27.75-1.86-3.19-.41-6.51-1.12-9.85-2.12-2.91-.86-5.32-1.94-7.37-3.29-1.11-.73-2.09-1.6-2.91-2.58-.95-1.14-1.39-2.48-1.34-4.09,.04-1.29,.36-2.49,.95-3.58,.67-1.25,1.53-2.46,2.55-3.6,1.41-1.57,2.79-2.92,4.23-4.13,2.14-1.8,4.57-3.56,7.44-5.39,3.15-2.01,6.55-3.98,10.42-6.02,2.95-1.55,5.9-3.09,8.85-4.63,2.83-1.47,5.66-2.95,8.49-4.44l1.38-.73c4.55-2.4,9.26-4.88,13.84-7.4,11.2-6.17,22.38-12.87,33.24-19.9,12.75-8.27,23.38-15.18,34.29-22.54,6.52-4.4,11.43-7.96,15.91-11.52,2.48-1.97,4.7-3.88,6.77-5.83,2.52-2.36,4.58-4.68,6.33-7.09,1.56-2.16,2.8-4.43,3.69-6.75,.67-1.76,1.01-3.57,1.01-5.37,0-2.54-.77-4.78-2.27-6.68-.84-1.06-1.83-1.99-2.94-2.74-1.37-.93-2.85-1.67-4.39-2.2-2.95-1.01-5.45-1.63-7.87-1.95-.63-.08-1.27-.17-1.9-.25-2.58-.35-5.24-.71-7.92-.81-1.44-.05-2.92-.19-4.35-.32-.86-.08-1.72-.16-2.58-.22-1.15-.08-2.48-.18-3.8-.18-1.83,0-3.66-.02-5.49-.03-6.47-.05-13.16-.1-19.75,.41-.27,.02-.55,.03-.82,.03-.18,0-.36,0-.54,.02-5.49,.23-11.7,.48-17.72,.94-.49,.04-.97,.08-1.46,.13-.88,.08-1.79,.17-2.68,.19-3.9,.11-7.81,.6-11.59,1.07-.8,.1-1.61,.2-2.41,.3-5.54,.67-11.44,1.55-18.02,2.69-1.38,.24-2.79,.43-4.16,.62-.91,.12-1.82,.25-2.73,.39-2.15,.33-4.39,.34-6.36,.36-1.4,.02-2.94-.21-4.8-.69-1.03-.27-1.96-.8-2.76-1.58-.34-.33-.78-.77-1.1-1.24-1.55-2.27-2.46-4.73-2.73-7.32-.36-3.51-.19-6.74,.51-9.87,.24-1.08,.11-2.13-.41-3.33-.85-1.97-2.98-3.3-5.06-3.17-2.25,.14-3.96,1.25-4.93,3.2-.74,1.48-1.15,2.97-1.22,4.41l-.03,.65c-.08,1.65-.16,3.3-.22,4.95-.12,3.85,.61,7.7,2.25,11.77,.67,1.66,1.5,3.24,2.48,4.71,2.99,4.47,7.32,7.22,12.89,8.17,1.66,.28,3.38,.44,5.25,.46,3.41,.05,7.11-.24,11.31-.89,1.1-.17,2.19-.37,3.28-.56,1.48-.27,3.01-.54,4.51-.74,2.18-.29,4.36-.61,6.54-.92,3.6-.52,7.32-1.07,10.98-1.47,3.15-.34,6.36-.6,9.47-.84,1.63-.13,3.26-.26,4.89-.4,1.9-.16,3.85-.24,5.73-.31,2.4-.09,4.87-.19,7.32-.47,.27-.03,.54-.03,.82-.04,.17,0,.34,0,.51-.01,7.09-.33,14.31-.37,21.29-.4l2.9-.02c6.43-.04,12.92,.57,19.21,1.16l.68,.06c3.24,.3,6,.85,8.43,1.68,.53,.18,1.07,.44,1.59,.7,.23,.11,.38,.21,.45,.29,.4,.45,.43,.71,.4,.89-.13,1-.5,2.01-1.14,3.1-1.23,2.1-2.83,4.12-5.05,6.34-2.01,2.01-4.32,4.04-7.26,6.38-3.83,3.05-7.99,6.09-12.73,9.31-11.57,7.86-22.25,14.91-32.65,21.55-1.51,.97-3.02,1.94-4.53,2.91-3.27,2.1-6.64,4.28-10,6.35-11.1,6.85-22.81,13.47-34.81,19.68l-2.5,1.29c-4.88,2.52-9.93,5.13-14.87,7.76-3.26,1.73-6.73,3.67-10.61,5.93-3.14,1.83-6.29,3.96-9.37,6.33-3.39,2.62-6.18,5.31-8.53,8.24-1.33,1.65-2.46,3.43-3.36,5.3-1.23,2.55-1.83,5.05-1.82,7.62v.32c0,.36,0,.73,0,1.09,.03,2.3,.62,4.55,1.75,6.7,.86,1.64,1.91,3.11,3.12,4.39,1.7,1.8,3.71,3.34,6.12,4.71,2.4,1.36,5.05,2.51,7.88,3.41,4.34,1.37,8.84,2.34,13.37,2.89,3.8,.46,8.22,.97,12.59,1.2,1.07,.06,2.15,.12,3.22,.18,4.41,.25,8.95,.52,13.47,.52,.51,0,1.02,0,1.54-.01,1.71-.02,3.41-.02,5.11-.01h3.11c7.25,0,14.74,0,22.12-.5,5.36-.37,11.6-.82,17.69-1.52,5.95-.68,12.02-1.64,18.03-2.85,7.24-1.45,13.75-3.23,19.89-5.44,3.25-1.17,6.1-2.35,8.7-3.62,2.28-1.11,4.48-2.43,6.54-3.9,1.9-1.37,3.58-2.9,4.98-4.57,1.55-1.84,2.62-3.91,3.18-6.15,.39-1.57,.35-3.14-.11-4.67Z"/><path class="cls-2" d="M909.24,979.12c-.31-2.74-1.25-5.05-2.88-7.09-.5-.63-.99-1.27-1.47-1.92-.55-.74-1.11-1.48-1.69-2.19-1.45-1.78-3.24-3.06-5.32-3.8-.33-.12-.65-.24-.98-.36-1.65-.61-3.36-1.23-5.19-1.44-1.68-.19-3.32-.78-5.18-1.87l-.98-.58c-.82-.49-1.66-.99-2.52-1.44-.51-.27-1.14-.46-1.81-.55-2.39-.32-4.53,.19-6.37,1.51-1.48,1.06-2.57,2.19-3.31,3.45-1.07,1.81-1.39,3.55-.99,5.33,.48,2.11,1.41,3.56,2.9,4.57l.4,.27c.34,.22,.67,.44,.99,.69,2.11,1.7,4.66,2.83,8.03,3.57,.63,.14,1.26,.26,1.9,.39,.5,.1,.99,.2,1.49,.3,.55,.12,1.11,.25,1.65,.39,1.12,.3,2.01,1.07,2.45,2.11,.43,1.01,.37,2.15-.18,3.16-.34,.63-.7,1.28-1.17,1.72-3.4,3.13-6.69,5.57-10.05,7.45-.23,.13-.58,.31-.86,.33-.34,.02-.61-.05-.66-.1-.7-.73-1.38-1.47-2.06-2.22-.86-.94-1.74-1.91-2.66-2.83-7.82-7.81-15.98-13.21-24.91-16.5-3.12-1.51-6.64-2.36-10.75-2.6-7.38-.43-13.91,.58-19.96,3.08-9.43,3.91-17.96,9.95-25.35,17.96-.4,.43-.77,.88-1.15,1.33-4.11,4.95-6.78,10.56-7.94,16.69-.54,2.83-.56,5.78-.07,8.78,.78,4.82,2.43,9.21,4.9,13.04,.96,1.49,1.79,2.71,2.6,3.84,.66,.91,1.33,1.8,2.01,2.7,.6,.79,1.2,1.58,1.78,2.38,1.26,1.72,2.34,3.26,3.31,4.69,.78,1.15,1.41,2.47,1.93,4.02,.47,1.42,.36,2.78-.35,4.05l-.17,.31c-.31,.57-.61,1.11-.98,1.59-1.03,1.33-1.98,2.48-2.91,3.52-.87,.98-1.76,1.94-2.66,2.9-.81,.87-1.62,1.74-2.41,2.62-2.48,2.75-4.6,5.42-6.51,8.14-3.13,4.48-5.49,9.4-7.01,14.62-1.67,5.71-2.09,10.48-1.31,15.01,.48,2.79,.28,3.19-1.42,5.44-.73,.96-1.44,2.04-2.26,3.39-1.65,2.73-3.01,5.57-4.24,8.24-.79,1.73-1.39,3.54-1.84,5.56-1.13,5.16-1.36,10.41-1.44,14.4-.02,1.31,.2,2.62,.42,3.89l.13,.76c.1,.6,.37,1.23,.77,1.77,.61,.84,1.22,1.76,1.55,2.86,.26,.88,.64,1.81,1.12,2.75,.35,.69,.81,1.37,1.36,2,1.25,1.44,2.79,2.17,4.6,2.17,.32,0,.65-.02,.99-.07,2.61-.36,4.8-1.71,6.52-4.03,.99-1.34,1.61-2.99,1.88-5.04,.05-.4,.01-.84-.11-1.33-.16-.6-.33-1.19-.51-1.78-.1-.33-.2-.66-.3-1-.62-2.14-1.32-4.66-1.83-7.21-.48-2.43-.57-5.04-.29-8.46,.03-.35,.09-.7,.19-1.02,.44-1.43,.82-2.63,1.23-3.82,.05-.15,.17-.32,.29-.49,.09-.13,.18-.26,.26-.4,.02-.03,.09-.09,.24-.12,.21-.04,.41,0,.5,.07,.56,.44,.96,1.01,1.38,1.62,.11,.16,.23,.33,.35,.49,2.1,2.9,4.44,5.52,6.94,7.82,3.14,2.88,6.01,4.9,9.03,6.37,7.65,3.71,15.93,5.74,24.63,6.04,1.85,.06,3.74,.05,5.56,.03,.84,0,1.68-.02,2.53-.02h2.35c1.71,0,3.42-.01,5.13,0,3.84,0,7.96-.5,13.22-1.72,3.08-.71,6.14-1.7,9.38-3.04,4.2-1.74,8.14-4.27,11.71-7.54,1.6-1.46,3.09-3.01,4.43-4.61,2.68-3.19,5.17-6.76,7.61-10.92,2-3.41,3.41-7.06,4.19-10.85,.9-4.36,.95-8.66,.14-12.79-1.38-7.06-4.23-13.66-8.47-19.6-1.94-2.72-4.1-5.37-6.58-8.08-1.08-1.18-2.16-2.34-3.24-3.51l-1.84-1.99c-1.05-1.14-2.39-2.68-3.37-4.5-.73-1.34-.92-2.72-.59-4.1,.27-1.09,.66-2.1,1.2-3.09,1.06-1.93,2.36-3.71,3.82-5.67,.49-.65,.98-1.3,1.47-1.95,1-1.32,2.04-2.68,3.01-4.07,1.48-2.12,2.53-3.79,3.41-5.4,2.74-5.04,3.99-9.99,3.84-15.15-.02-.63-.04-1.26-.07-1.89-.05-1.09-.09-2.18-.1-3.28,0-.46,.17-.82,.52-1.09,2.61-1.97,5.45-3.76,8.69-5.47,3.61-1.9,6.62-3.89,9.2-6.07,2.65-2.24,4.66-5.02,6.14-8.51,.94-2.23,1.28-4.58,1.01-7.01Zm-48.15,51.24c-.36,.47-.72,.93-1.07,1.4-1.42,1.87-2.72,3.83-3.84,5.82-1.07,1.89-1.96,4-2.72,6.45-1.37,4.42-.98,8.75,1.21,13.22,1.29,2.63,3.01,5.15,5.27,7.69,1.02,1.15,2.07,2.27,3.11,3.39,.53,.56,1.06,1.13,1.58,1.7,2.56,2.78,4.55,5.15,6.25,7.45,3.46,4.68,5.7,9.9,6.66,15.51,.2,1.16,.26,2.27,.19,3.32-.21,3.12-.9,5.77-2.1,8.11-2.44,4.74-5.42,8.96-8.85,12.54-3.06,3.19-6.42,5.42-10.28,6.81-3.06,1.1-5.68,1.83-8.23,2.28-5.26,.94-9.59,1.22-13.62,.88-.36-.03-.73-.03-1.37-.02-.32,0-.7,0-1.19,.01h0s-.29,0-.29,0v.25s-.02-.25-.02-.25c-.07,0-.93,.06-1.79,.09-5.53,.19-11.21-.53-16.91-2.14-.56-.16-1.12-.35-1.67-.55-.34-.12-.69-.24-1.04-.36-4.47-1.46-8.39-4.14-11.99-8.2-2.61-2.95-4.82-6.08-6.56-9.29-.25-.47-.19-1.22,.12-1.58,.06-.07,.12-.15,.18-.23,.05-.07,.11-.14,.17-.21,3.44-3.67,6.81-6.62,10.3-9.01,1.84-1.26,3.71-2.65,5.57-4.15,1.18-.95,2.45-1.83,3.68-2.69l.48-.33c2.94-2.05,5.75-4.13,8.34-6.2,.77-.61,1.55-1.21,2.34-1.8,1.34-1.01,2.72-2.06,4.01-3.19,4.17-3.65,7.54-8.18,10.01-13.46,2.15-4.58,4.06-9.72,5.85-15.69,.36-1.2,.71-2.41,1.05-3.62l.55-1.91c1.57-5.42,4.31-10.15,8.17-14.07l.68-.69c.85-.86,1.7-1.73,2.55-2.6,1.78-1.84,3.77-3.5,6.11-5.08,.86-.58,1.71-1.17,2.56-1.76,.88-.61,1.76-1.23,2.66-1.83,.38-.25,.84-.48,1.44-.72,.24-.09,.46,.03,.57,.11,.12,.09,.21,.19,.14,.54-.42,2.05-1.19,3.96-2.3,5.66-1.12,1.73-2.32,3.48-3.56,5.21-.77,1.08-1.6,2.15-2.39,3.18Zm-57.26,37.27c.83-.89,1.65-1.78,2.47-2.68,1.63-1.79,3.08-3.79,4.45-6.12,.64-1.09,1.21-2.29,1.76-3.7,.53-1.34,.83-2.71,.89-4.07,.06-1.29,.07-2.43,.02-3.49-.07-1.46-.38-2.98-.95-4.63-1.04-3-2.52-5.87-4.53-8.78-.81-1.16-1.67-2.31-2.51-3.42-.54-.71-1.07-1.42-1.6-2.14-1.62-2.23-2.86-3.96-4.01-5.6-1.93-2.76-3.08-6.02-3.51-9.96-.04-.4-.05-.74,0-1.02,.49-3.64,1.46-6.49,3.05-8.97,1.11-1.72,2.05-2.97,3.07-4.04,5.11-5.43,10.6-9.55,16.77-12.61,2.91-1.44,6.17-2.45,10.26-3.18,.9-.16,1.83-.2,2.64-.24,.33-.02,.64-.03,.92-.05,4.57,.13,8.8,1.1,12.94,2.98,6.52,2.96,12.5,7.36,17.79,13.08,.03,.03,.06,.1,.09,.16,.05,.1,.1,.2,.17,.29,.14,.19,.11,.75,0,.86-.31,.22-.61,.46-.92,.69-.61,.48-1.19,.93-1.83,1.26-2.84,1.47-5.32,3.44-7.61,5.33-2.19,1.8-4.21,3.61-6.02,5.4-.97,.96-1.87,2.02-2.73,3.04-.49,.58-.97,1.15-1.48,1.72l-.35,.4c-1.28,1.43-2.6,2.9-3.68,4.57-.4,.62-.89,1.22-1.37,1.79l-.36,.43c-2.76,3.36-4.93,7.29-6.45,11.66-1.48,4.26-2.61,7.74-3.54,10.95-.77,2.63-1.66,5.17-2.65,7.53-1.37,3.26-3.01,5.92-5.02,8.12-4.05,4.44-8.33,8.29-12.72,11.46-2.31,1.67-4.59,3.43-6.79,5.14-1.39,1.08-2.79,2.16-4.2,3.22-1.74,1.31-3.61,2.69-5.68,3.81-.12-.06-.19-.1-.09-.38,1.16-3.23,2.85-6.3,5.18-9.39,1.59-2.11,3.41-4.27,5.9-6.99,.73-.8,1.47-1.6,2.21-2.4Z"/><path class="cls-2" d="M1067.13,632.02c-2.49-9-7.36-16.16-14.49-21.27-3.37-2.41-7.13-4.27-11.5-5.68-4.41-1.42-9.01-2.27-14.06-2.61-3.4-.23-6.86-.26-10.3-.09-2.66,.13-5.34,.38-7.94,.62-1.3,.12-2.6,.24-3.9,.35-.4,.03-.8,.1-1.2,.16-.18,.03-.37,.06-.55,.09l-2.64,.37c-2.04,.29-4.09,.58-6.13,.82-1.21,.15-2.42,.31-3.62,.48-2.23,.31-4.53,.63-6.82,.79l-.13,.02c-2.72,.48-5.43,.62-8.33,.77-1.64,.08-3.33,.17-4.95,.32l-.8-.03c-.65-.02-1.33-.05-2-.09-.42-.02-.84-.06-1.26-.09-.72-.06-1.45-.11-2.17-.13-2.25-.04-4.61-.37-7.65-1.05-3.37-.76-6.58-1.96-9.55-3.58-3.66-2-6.73-4.76-9.12-8.2-.97-1.4-1.72-2.98-2.29-4.82-.97-3.12-1.2-6.36-.68-9.63,.46-2.97,1.25-5.76,2.34-8.3,1.39-3.23,3.12-5.83,5.29-7.95,2.17-2.12,4.68-3.56,7.44-4.3,1.61-.43,3.39-.6,5.43-.52,3.43,.13,7.04,.95,11.04,2.5,3.32,1.29,6.75,3.05,10.79,5.55,3.25,2.01,6.48,4.19,9.67,6.33l1.1,.74c2.78,1.87,5.62,3.72,8.37,5.51l.66,.43c1.72,1.12,3.68,2.21,6.16,3.42,2.84,1.39,5.84,2.34,8.9,2.82,.97,.15,2.13,.29,3.35,.15,3.76-.44,6.98-1.54,9.82-3.36,1.61-1.04,3.03-2.13,4.32-3.33,3.97-3.69,6.96-8.38,8.9-13.94,2.26-6.5,3.26-13.58,2.95-21.05-.02-.51-.11-1.05-.26-1.65-.55-2.13-1.87-3.56-3.84-4.14-2.02-.59-3.88-.07-5.39,1.52-.78,.82-1.3,1.87-1.55,3.09-.21,1-.28,2.04-.22,3.09,.23,4.26-.51,8.31-1.27,11.72-.36,1.61-.92,3.29-1.75,5.31-.72,1.75-1.72,3.42-2.96,4.96-1.62,2.01-3.29,3.47-5.1,4.47-2.53,1.4-4.96,1.72-7.42,.98-2.22-.66-4.17-1.49-5.96-2.52-2.21-1.27-4.4-2.61-6.53-4-2.1-1.37-4.19-2.79-6.22-4.17l-2.71-1.84c-3.88-2.62-6.93-4.56-9.9-6.29-4.21-2.45-8.08-4.28-11.84-5.6-4.98-1.74-9.2-2.58-13.29-2.64-8.26-.13-15.48,2.93-21.34,9.11-2.45,2.59-4.53,5.68-6.18,9.19-1.99,4.24-3.36,8.87-4.06,13.77-.59,4.12-.29,8.42,.93,13.15,1.19,4.59,3.43,8.73,6.87,12.64,3.47,3.95,7.67,7.12,12.5,9.43,5.45,2.61,11.38,4.23,17.62,4.82,3.52,.33,7.14,.44,10.74,.33,5.57-.18,11.04-.78,16.13-1.41,2.68-.33,5.4-.71,8.11-1.1,2.46-.35,4.93-.7,7.4-1.01,2.94-.37,6.42-.78,10-1,4.03-.25,7.95-.29,11.66-.11,4.77,.23,9.11,1.05,13.26,2.5,2.17,.75,4.09,1.66,5.88,2.77,6.22,3.84,10.22,9.74,11.89,17.53,1.18,5.51,1.11,11.36-.2,17.37-1.17,5.34-3.11,10.58-5.79,15.57-3.55,6.62-8.2,12.4-14.22,17.69-12.78,11.21-29.78,17.53-46.74,17.27-4.64-.07-8.43-.42-11.92-1.11-4.85-.96-8.76-2.11-12.3-3.62-4.17-1.78-7.77-3.95-11.01-6.64-3.12-2.59-5.75-5.72-7.84-9.31-2.44-4.2-3.33-8.86-2.64-13.83,.54-3.91,2.4-6.81,5.51-8.61,1.33-.77,2.76-1.26,4.23-1.44,3.14-.39,5.94-.17,8.58,.65,.73,.23,1.46,.43,2.19,.63,.76,.21,1.53,.42,2.29,.67,1.68,.53,3.36,.84,4.99,1.14l.15,.03c2.17,.4,4.42,.33,6.88-.21,2.6-.56,4.99-1.72,7.11-3.45,1.06-.86,1.95-1.89,2.64-3.04,1.63-2.73,2.08-5.59,1.34-8.5-.38-1.48-.99-2.87-1.83-4.13-.87-1.31-1.89-2.48-3.12-3.6-2.73-2.47-5.9-4.34-9.69-5.73-3.15-1.15-6.51-1.79-10.01-1.89-1.62-.05-3.26-.05-4.84-.04h-.45c-1.06,0-2.12,0-3.18-.01-2.46-.02-5.05,.28-8.3,1-2.92,.65-5.4,1.62-7.58,2.96-1.13,.7-1.98,1.38-2.68,2.14-1.39,1.5-1.93,3.37-1.59,5.42,.29,1.7,1.23,3.04,2.72,3.85,1.41,.77,2.97,.88,4.53,.3,.62-.23,1.23-.55,1.82-.94,2.08-1.37,4.56-2.19,7.82-2.57,.51-.06,1.01-.12,1.52-.14,3.6-.19,7.24-.18,10.82,.02,1.85,.1,3.5,.4,5.03,.89,2.83,.91,5.07,2.17,6.85,3.85,.25,.24,.5,.57,.78,.94l.05,.06s-.05,.05-.07,.07c-.05,.05-.11,.12-.11,.13-1.5,.86-3.08,1.15-4.71,.86-1.89-.35-3.41-.71-4.77-1.13-.95-.3-1.92-.56-2.94-.83-.79-.21-1.59-.43-2.38-.67-2.27-.69-4.54-.84-6.67-.9-3.05-.08-6.04,.38-8.86,1.38-7.07,2.5-11.88,7.55-14.29,15.01-1.36,4.19-1.68,8.67-.98,13.67,.47,3.38,1.51,6.71,3.08,9.88,2.67,5.38,6.31,10.09,10.81,13.99,4.81,4.18,10.41,7.5,16.64,9.88,7.13,2.72,14.79,4.31,22.77,4.72,1.47,.08,2.95,.11,4.4,.11,3.92,0,7.79-.28,11.48-.82,5.51-.81,10.86-2.17,15.89-4.03,10.15-3.76,19.19-9.2,26.86-16.18,7.19-6.55,12.92-14.12,17.02-22.5,4.07-8.32,6.42-16.96,7-25.69,.07-1.06,.14-2.16,.09-3.29-.22-4.9-.78-8.85-1.77-12.42Z"/><path class="cls-2" d="M703.04,1107c-.44-3.41-3.28-5.66-6.62-5.24-1.13,.14-2.1,.52-2.89,1.13-.99,.76-2.01,1.6-3.13,2.58-1.06,.93-2.11,1.87-3.16,2.81-.95,.85-1.9,1.7-2.86,2.55-1.43,1.26-3.14,2.33-5.22,3.28-4.35,1.97-9.02,3.14-14.28,3.58-.2,.02-.41,0-.64-.03-.15-.02-.29-.03-.43-.04-.17-.03-.5-.43-.52-.56l1.37-3.78c.81-2.27,1.64-4.69,2.13-7.24,1.32-6.94,1-8.48,.04-13.07l-.17-.81c-1.41-6.82-3.98-12.91-7.66-18.09-2.16-3.05-4.41-5.63-6.86-7.89-.32-.29-.64-.58-.96-.86-.94-.83-1.91-1.69-2.7-2.67-.08-.15,.04-.68,.18-.78,.43-.28,.93-.42,1.46-.56,.19-.05,.38-.11,.57-.17,5.54-1.75,10.87-4.61,16.3-8.76,.99-.76,1.78-1.7,2.34-2.79,.72-1.4,.77-2.99,.15-4.48-.65-1.55-1.97-2.85-3.38-3.3-1.8-.58-3.62-.46-5.4,.35-.74,.34-1.44,.79-2.05,1.19-.52,.34-1.02,.69-1.53,1.04-.6,.41-1.2,.82-1.81,1.21-4.42,2.82-9.47,4.58-15.4,5.39-.71,.04-1.35,.08-1.93,.12q-5.16,.33-9.7-2.99l-.78-.57c-.78-.57-1.56-1.19-2.3-1.8l-.85-.68c-3.32-2.65-5.57-6.06-6.67-10.14l-.07-.25c-.22-.82-.45-1.67-.62-2.51-.64-3.26-1.03-6.7-1.15-10.21-.01-.38-.02-.75-.03-1.13-.02-.96-.04-1.96-.16-2.94-.85-6.85-1.87-12.55-4.1-18.04-.38-.92-.59-1.91-.73-2.67-.01-.07,.05-.32,.29-.66,.17-.24,.42-.47,.66-.6,8.6-4.59,17.48-6.04,26.39-4.3,1.54,.3,3.33,.64,5.11,.93,1.14,.19,2.24-.07,3.06-.32,1.5-.45,2.76-1.56,3.46-3.06,.69-1.48,.74-3.15,.13-4.57-.66-1.54-1.81-2.7-3.42-3.45-.38-.17-.76-.3-1.14-.41-.18-.06-.36-.11-.54-.17-1.69-.59-3.46-.87-5.16-1.14-.75-.12-1.49-.24-2.24-.38-1.82-.35-3.64-.47-5.81-.53-2.91-.08-6.04,.22-9.83,.98-5.48,1.09-9.85,2.53-13.75,4.54-.2,.1-.41,.2-.61,.3l-.42,.2c-.09,.04-.18,.09-.27,.14l-.24,.12c-1.96,.96-2.15,.93-3.39-.49-2.33-2.67-4.91-5.06-7.67-7.1-1.67-1.24-3.32-2.22-5.03-3-4.52-2.07-9.3-3.06-14.2-2.94-2.24,.05-4.14,.26-5.81,.63-3.52,.78-6.58,1.85-9.33,3.29-5.37,2.8-10.05,6.29-13.92,10.38-3.18,3.36-5.75,7.28-7.63,11.64-1.92,4.45-2.64,9.08-2.13,13.75,.14,1.31,.36,2.62,.56,3.89l.2,1.26c.14,.88,.28,1.75,.42,2.62,.2,1.21,.4,2.42,.58,3.63,.12,.81,.19,1.54,.21,2.23,.09,4.42-1.08,7.98-3.59,10.87l-.33,.38c-.88,1.01-1.79,2.06-2.72,3.04-1.51,1.58-3.03,3.14-4.56,4.71l-1.86,1.9c-4.63,4.77-8.22,8.94-11.29,13.15-6.04,8.28-10.15,17.68-12.22,27.93-.45,2.21-.72,4.46-.99,6.64-.1,.84-.21,1.67-.32,2.51-.79,5.88-.31,11.91,1.46,18.44,1.38,5.1,3.47,9.36,6.38,13.02,5.38,6.77,12.56,10.2,21.36,10.2h.08c3.9,0,7.91-.95,11.9-2.78,3.61-1.66,6.92-3.74,9.83-6.19,2.51-2.11,4.88-4.43,7.03-6.91,3.18-3.66,5.71-6.81,7.94-9.93,1.7-2.37,3.55-4.87,5.8-7.87,2.67-3.56,5.73-7.03,9.07-10.31,3.61-3.55,7.86-5.96,12.63-7.19,1.53-.39,3.16-.56,4.99-.52,1.23,.03,2.4,.37,3.59,1.04,.79,.45,1.57,.97,2.34,1.55,2.28,1.74,4.94,3.86,7.31,6.37,.62,.66,1.32,1.4,2.1,2.05,1.29,1.08,2.83,1.62,4.57,1.63h.01c3.25,0,6.04-2.39,6.49-5.57,.28-1.95-.09-3.73-1.12-5.3-.36-.55-.85-1.27-1.42-1.9-3.75-4.17-8.25-7.9-13.36-11.09-2.44-1.53-5.26-2.44-8.36-2.71-3.5-.31-6.55-.15-9.32,.48-5.86,1.34-11.17,3.78-15.78,7.24-1.91,1.44-3.76,3.08-5.65,5.02-3.84,3.95-6.85,7.42-9.45,10.94-1.12,1.51-2.24,3.03-3.35,4.55-.93,1.27-1.86,2.54-2.79,3.8-2.55,3.44-5.03,6.5-7.6,9.34-1.48,1.63-3.09,3.17-4.94,4.72-2,1.67-4.27,3.05-6.74,4.09-2.25,.95-4.38,1.39-6.51,1.32-4.04-.13-7.27-1.72-9.58-4.74-.78-1.02-1.38-1.95-1.82-2.82-1.92-3.79-2.95-7.5-3.14-11.36-.3-5.94,.27-11.85,1.69-17.56,1.81-7.28,4.65-13.52,8.68-19.1,1.78-2.46,3.41-4.67,5.31-6.73,1.47-1.59,2.96-3.17,4.45-4.74,.75-.79,1.5-1.59,2.25-2.38l2.15-2.29c1.92-2.03,3.83-4.06,5.73-6.11,1.59-1.72,3.03-3.74,4.4-6.18,.92-1.65,1.61-3.29,2.03-4.89,1.45-5.48,1.73-10.07,.89-14.47-.3-1.56-.57-3.12-.83-4.68-.18-1.08-.37-2.17-.56-3.25-.81-4.5-.02-8.64,2.36-12.32l.29-.45c.21-.33,.42-.66,.64-.97,3.54-4.93,8.45-8.76,14.58-11.37,2.92-1.24,5.87-1.73,8.76-1.44,3.38,.34,6.12,1.28,8.38,2.86,3.48,2.43,6.1,5.25,8.01,8.62,3.39,5.97,5.55,12.28,6.42,18.76,.46,3.45,.9,7.15,.98,10.83,.09,4.39,.9,8.87,2.47,13.7,1.84,5.65,4.64,10.15,8.57,13.74,.71,.65,1.43,1.3,2.17,1.92,2.51,2.11,5.25,4.14,8.36,6.21,3.07,2.05,5.85,3.97,8.51,5.89,3.76,2.71,7.33,5.66,10.6,8.76,4.92,4.66,8.23,10.37,9.82,16.95,1.05,4.35,.91,8.66-.41,12.8-.8,2.5-1.77,4.7-2.97,6.73-2.25,3.79-5.02,7.47-8.23,10.94-.42,.45-.86,.87-1.29,1.3l-.32,.31c-1.43,1.4-3.16,2.51-5.13,3.3-.36,.14-.73,.26-1.1,.38-.36,.12-.72,.23-1.07,.37-.89,.34-1.55,.63-2.16,.94-2.3,1.17-3.78,3.32-3.96,5.76-.18,2.34,.9,4.58,2.87,5.99,1.18,.84,2.51,1.28,3.88,1.28,.28,0,.55-.02,.83-.05,1.9-.24,3.81-.75,5.67-1.5,3.74-1.5,7.03-3.61,9.79-6.28,.93-.89,1.86-1.83,2.86-2.87,.38-.39,.74-.8,1.1-1.21,.28-.31,.55-.62,.83-.93,.64-.69,1.33-1,2.15-.97,.89,.04,1.78,.1,3.04,.17l1.96,.12c.19,.05,.56,.04,1.36,.02,8.11-.29,15.68-2.04,22.48-5.21,2.1-.98,3.9-2.05,5.53-3.29,3.56-2.71,7.09-5.86,10.79-9.62,.84-.85,1.44-1.93,1.78-3.21,.13-.47,.26-1.18,.17-1.89Z"/><path class="cls-2" d="M1455.49,439.66c0-1.68,0-3.42-.24-5.11-.77-5.63-2.05-10.68-3.92-15.44-1.79-4.57-3.58-8.49-5.47-11.98-1.59-2.94-3.25-5.9-4.86-8.76l-.72-1.28c-.59-1.05-1.19-2.1-1.8-3.15-.76-1.32-1.52-2.64-2.25-3.97-1.86-3.37-3.35-7.15-4.56-11.55-1.64-5.99-1.82-11.56-.55-17.04,1.9-8.22,5.83-14.73,12.02-19.93,2.13-1.79,4.03-3.1,6.36-3.7,.33-.08,.62-.24,.9-.38l.2-.1c1.56-.78,2.76-2.19,3.29-3.85,.51-1.57,.36-3.25-.42-4.73-1.13-2.16-3.01-3.41-5.6-3.73-1.27-.16-2.61,.01-3.99,.5-2.06,.73-4.05,1.78-5.91,3.1-8.93,6.37-15.15,14.71-18.51,24.78-1.17,3.5-1.86,6.4-2.17,9.12-.46,4.02-.46,8.16,0,12.65,.06,.61,.15,1.16,.25,1.67,1.58,7.69,3.95,14.27,7.23,20.11,.81,1.44,1.63,2.88,2.45,4.32l1.33,2.33c.46,.81,.92,1.61,1.38,2.41,1.06,1.85,2.15,3.76,3.19,5.67,2.61,4.83,4.66,9.36,6.27,13.85,1.39,3.88,2.27,8.07,2.79,13.21,.07,.7,.09,1.41,.05,2.11-.37,6.66-1.92,12.2-4.77,16.95-1.49,2.49-3.07,4.99-4.59,7.4l-.3,.48c-.11,.18-.34,.37-.62,.51-.12,.06-.23,.04-.22,.07-1.11-3.13-2.31-6.47-3.63-9.73-1.42-3.52-3.21-6.96-5.33-10.25-2.11-3.28-4.42-6.4-6.87-9.27-3.75-4.39-7.47-7.78-11.4-10.35-8.88-5.81-16.12-9.44-23.5-11.77-1.49-.47-2.8-.98-4-1.56-.94-.45-1.75-1.08-2.39-1.87-.69-.84-.96-1.73-.82-2.65,.53-3.26,1.36-6.42,2.49-9.39,1.05-2.76,2.17-5.73,3.24-8.71,1.34-3.73,2.38-7.66,3.09-11.69,.61-3.49,.72-7.09,.34-11.02-.49-4.98-2.02-9.74-4.54-14.16-4.37-7.65-10.3-13.66-17.62-17.88-1.58-.91-2.82-1.5-4.02-1.92-4.79-1.67-8.93-2.41-13.01-2.32-2.06,.04-4.03,.36-6.03,.71-5.94,1.03-11.45,3.6-16.39,7.64-7.05,5.77-11.86,13.55-14.28,23.11-.86,3.4-1.23,6.73-1.08,9.9,.2,4.4,.7,8.33,1.55,12,1.48,6.44,3.97,12.79,7.39,18.89,.82,1.46,1.7,2.9,2.55,4.3,.56,.91,1.11,1.82,1.66,2.74,.73,1.24,1.59,2.72,2.39,4.26,1.25,2.39,1.82,4.97,1.7,7.66-.11,2.41-.25,4.43-.58,6.47-.43,2.66-1.01,5.45-1.87,9.06l-.41,1.7c-.37,1.54-.76,3.12-1.09,4.7-.75,3.63-1.42,7.53-1.17,11.43-.13,2.79,.17,5.53,.47,8.18l.13,1.18c.57,5.33,1.72,10.75,3.4,16.11,.52,1.67,1.18,3.47,2.08,5.68,1.05,2.59,2.47,5,4.22,7.16,2.05,2.53,4.34,4.03,7.01,4.57,.43,.09,.86,.13,1.28,.13,1.31,0,2.57-.43,3.76-1.28,2.06-1.48,2.91-3.57,2.53-6.22-.18-1.29-.68-2.37-1.49-3.21-.51-.53-1.03-1.07-1.62-1.54-1.17-.93-2.1-2.14-2.82-3.69l-.12-.27c-.48-1.04-.99-2.11-1.36-3.2-2.5-7.15-3.84-14.81-4.12-23.44-.03-.92,.04-1.86,.11-2.67,.25-2.92,.6-5.3,1.1-7.49,.56-2.48,1.19-4.98,1.8-7.4l.14-.55c1.51-5.98,2.11-12.41,1.78-19.12-.08-1.57-.36-3.19-.88-4.94-.98-3.33-2.59-6.3-4.19-9-.77-1.29-1.55-2.57-2.34-3.85-.45-.74-.91-1.48-1.36-2.22-1.51-2.48-2.87-5.17-4.17-8.21-2.27-5.33-3.58-10.79-3.92-16.23-.59-9.66,2.86-17.85,10.25-24.33,2.55-2.24,5.56-3.77,8.96-4.55,3.09-.71,6.13-.84,9.03-.39,2.99,.46,5.57,1.43,7.91,2.97,4.29,2.83,7.89,6.6,10.69,11.22,1.72,2.84,2.71,5.62,3,8.48,.06,.58,.14,1.15,.22,1.72,.07,.51,.14,1.02,.2,1.53,.06,.53,.11,1.05,.05,1.52-.42,3.8-.89,7.52-2.14,11.14-.47,1.37-.97,2.74-1.48,4.1-.3,.82-.62,1.63-.93,2.45-.47,1.23-.94,2.45-1.39,3.69-.96,2.68-2.17,6.24-2.95,10.02-.51,2.51-.66,4.87-.45,7.21,.27,2.94,1.31,5.55,3.09,7.77,2.1,2.61,4.73,4.69,7.83,6.18,2.02,.97,4.09,1.68,5.67,2.18,1.85,.59,4.26,1.4,6.57,2.5,5.1,2.43,9.43,4.88,13.25,7.47,1.85,1.26,3.37,2.46,4.65,3.67,5.35,5.06,9.67,10.88,12.85,17.33,.89,1.82,1.64,3.75,2.37,5.63l.54,1.39c1.47,3.77,2.23,7.65,2.25,11.55v.38c0,1.15,.01,2.31,.05,3.46l.04,1.17c.07,1.95,.14,3.96,.28,5.94,.17,2.42,1.2,4.44,3.07,6.03,1.54,1.3,3.67,1.81,5.73,1.36,2.08-.46,3.75-1.82,4.7-3.85,.27-.59,.46-1.13,.58-1.65,.33-1.5,.99-2.99,2.13-4.82,1.22-1.97,2.44-3.93,3.66-5.9l2.68-4.32c.65-1.05,1.31-2.1,1.97-3.15,1.54-2.46,3.14-5,4.63-7.55,4.3-7.34,6.45-15.32,6.39-23.7v-.95Z"/><path class="cls-2" d="M1276.12,359.89c-.02-.1-.04-.2-.05-.29l-.04-.26c-1.2-6.42-3.71-12.33-7.45-17.55-3.5-4.89-8.35-8.44-14.4-10.57-2.21-.78-4.27-1.21-6.31-1.33-4.53-.27-8.5,.14-12.14,1.27-2.05,.63-4.07,1.36-6,2.14-9.8,4-18.55,10.38-26.01,18.96-4.75,5.46-8.46,10.71-11.34,16.05-.17,.31-.37,.6-.59,.91-.11,.16-.22,.31-.31,.46-.03,.03-.19,.06-.38,.03-.17-.03-.27-.1-.28-.12l-.54-.92c-.5-.85-1-1.71-1.54-2.54-5.52-8.64-10.75-15.02-16.46-20.08-4.39-3.89-8.73-6.94-13.25-9.32-5.88-3.09-10.87-4.96-15.72-5.88-4.58-.87-8.76-.76-12.76,.32-6.98,1.89-12.55,5.71-16.56,11.36-4.72,6.63-7.46,14.49-8.15,23.34-.04,.47-.03,.88,0,1.25l.06,.52c.31,2.65,.63,5.4,1.38,8.06,1.38,4.9,3.76,9.59,7.08,13.94,1.04,1.36,2.13,2.69,3.2,3.99,.63,.76,1.25,1.53,1.87,2.3l1.04,1.3c1.67,2.08,3.39,4.22,5.03,6.37,.86,1.12,1.71,2.39,2.53,3.77,1.02,1.73,1.68,3.43,2.01,5.18,.26,1.36,.26,2.6,0,3.79-.43,1.97-1.19,3.98-2.4,6.32-1.35,2.65-3.03,5.17-4.65,7.61l-.13,.2c-1.24,1.87-2.35,3.63-3.39,5.37-1.45,2.43-2.53,5.18-3.21,8.15-.79,3.45-1.5,7.16-1.42,10.92-.19,3.48,.41,6.92,1.02,9.82,1.41,6.66,4.54,12.23,9.3,16.55,2.75,2.49,5.49,4.53,8.4,6.22,6.32,3.69,13.52,6.03,21.4,6.95,.81,.1,1.63,.13,2.46,.13,.92,0,1.86-.04,2.8-.09,1.6-.09,3.12-.67,4.52-1.73,2.42-1.84,3.43-5.03,2.45-7.77-.96-2.68-2.94-4.3-5.9-4.81-.84-.15-1.7-.16-2.53-.17h-.42c-2.3-.04-4.79-.42-7.84-1.2-5.01-1.28-9.62-3.53-13.68-6.69-3.89-3.02-6.19-6.86-7.01-11.74-.03-.18-.06-.37-.08-.55-.03-.2-.05-.39-.09-.58-.48-2.79-.39-5.83,.28-9.57,.63-3.5,1.9-6.64,3.79-9.32,.64-.91,1.26-1.84,1.88-2.77l.71-1.05c1.58-2.34,3.07-4.85,4.43-7.48,1.5-2.89,2.56-5.55,3.22-8.12,1.16-4.48,1.13-8.97-.08-13.34-1.01-3.63-2.77-7.21-5.4-10.94-2.51-3.56-5.17-6.84-7.46-9.57-1.47-1.77-2.94-3.54-4.38-5.34-1.52-1.89-2.61-3.54-3.43-5.19-2.82-5.62-3.45-10.45-1.97-15.2,.06-.21,.11-.42,.15-.64,.03-.17,.06-.33,.11-.49,.98-3.35,2.27-6.21,3.97-8.73,1.73-2.58,4.02-4.44,6.8-5.54,.89-.35,1.77-.68,2.63-.81,2.74-.41,5.35-.24,7.76,.49,4.44,1.35,8.63,3.24,12.43,5.63,5.02,3.16,9.62,7.2,13.67,12.02,2.05,2.44,4.04,5.13,6.48,8.75,1.63,2.42,2.83,4.71,3.69,7.01,.92,2.46,1.73,4.9,2.62,7.6,.23,.69,.42,1.39,.62,2.09,.22,.78,.44,1.56,.7,2.33,.38,1.11,.77,1.98,1.24,2.72,1.46,2.31,3.64,3.51,6.19,3.44,1.12-.03,2.3-.21,3.52-.54,2.77-.75,4.66-2.5,5.62-5.19,.32-.9,.6-1.81,.88-2.72,.17-.56,.34-1.12,.53-1.68l.37-1.13c.65-1.99,1.29-3.98,1.97-5.96,1.14-3.33,2.81-6.54,4.96-9.55,.85-1.19,1.72-2.37,2.59-3.54,.5-.67,1-1.35,1.49-2.02,2.29-3.13,5.16-6.14,9.03-9.5,4.52-3.91,9.63-6.94,15.63-9.26,2.08-.8,4.23-1.35,6.57-1.66,2.72-.36,5.37,.11,8.08,1.44,2.44,1.2,4.42,3.04,6.05,5.61,2.14,3.39,3.57,7.18,4.38,11.6,.34,1.88,.35,3.74,0,5.55-.61,3.26-1.63,6.01-3.12,8.42-.91,1.46-1.75,2.69-2.57,3.75-.87,1.13-1.78,2.23-2.69,3.34-.68,.82-1.35,1.64-2.02,2.48l-.91,1.15c-1.94,2.43-3.94,4.95-5.85,7.47-1.91,2.52-3.48,5.23-4.69,8.05-2.63,6.16-2.97,12.32-1.03,18.33,.82,2.53,1.66,4.58,2.65,6.46,1.73,3.3,3.18,5.77,4.69,7.99,.31,.45,.61,.9,.91,1.36,.55,.83,1.1,1.65,1.68,2.46,1.78,2.5,3,5.46,3.62,8.87,.4,2.18,.81,4.43,.7,6.65-.16,3.19-.75,6.17-1.75,8.85-.62,1.64-1.48,3.07-2.56,4.25-1.23,1.34-2.46,2.47-3.75,3.44-5.27,3.97-11.22,6.35-17.7,7.09-.84,.1-1.69,.18-2.53,.26-1.26,.13-2.52,.25-3.77,.41-.97,.13-1.74,.35-2.37,.69-3.09,1.67-4.58,5.38-3.38,8.45,1.14,2.92,3.39,4.62,6.49,4.91,2.98,.28,5.92,.17,8.74-.32,4.39-.76,8.51-1.94,12.26-3.51,5.47-2.29,10.38-5.44,14.61-9.39,2.47-2.3,4.37-4.69,5.81-7.31,2.35-4.27,3.77-9.13,4.22-14.47,.37-4.4,.11-8.88-.79-13.32-.92-4.56-2.53-8.61-4.93-12.4-.94-1.49-1.95-2.97-2.92-4.4l-.6-.88c-1.4-2.07-2.53-4-3.46-5.89-.56-1.15-1.15-2.38-1.62-3.64-1.23-3.26-1.11-6.51,.36-9.68,.85-1.84,1.94-3.63,3.23-5.3,1.51-1.96,3.08-3.93,4.61-5.84l1.46-1.83c.69-.87,1.39-1.74,2.09-2.61,1.23-1.53,2.46-3.05,3.66-4.6,1.56-2,2.91-4.17,3.99-6.45,3.75-7.88,4.85-15.11,3.36-22.1Z"/><path class="cls-2" d="M694.13,757.09c-.55-1.99-1.3-3.62-2.28-4.96-1.88-2.58-4.17-3.54-6.83-2.85-1.47,.38-2.75,1.43-3.59,2.96-.97,1.77-1.21,3.87-.63,5.63,.36,1.1,.78,2.2,1.16,3.17,.5,1.28,.66,2.66,.75,3.84,.2,2.46,.03,4.93-.49,7.33-.97,4.46-2.35,8.33-4.24,11.81-1.58,2.92-3.59,5.33-5.98,7.15-1.31,1-2.73,2.03-4.49,3.23-2.54,1.75-5.09,3.82-7.78,6.35-3.73,3.5-6.48,7.76-8.18,12.66-.79,2.28-1.66,5-2.11,7.91l-.21,1.34c-.41,2.65-.84,5.4-1.08,8.14-.33,3.76-.88,7.54-1.37,10.79-.72,4.82-1.69,9.12-2.95,13.15-.27,.86-.53,1.71-.79,2.57-.65,2.11-1.32,4.29-2.04,6.4-2.09,6.09-4.42,11.92-6.93,17.31-1.52,3.28-3.11,6.04-4.85,8.45-2.74,3.79-5.79,7.11-8.69,10.13-.07,.07-.16,.13-.26,.2l-.17,.12c-1.12,.84-2.23,.95-3.4,.34-.5-.26-1.02-.53-1.39-.92-1.49-1.57-2.98-3.21-4.42-4.79l-.74-.82c-3.73-4.11-6.79-8.89-9.37-14.63-3.62-8.09-6.79-16.74-9.4-25.72-1.08-3.69-1.93-7.57-2.62-11.85-.55-3.41-.94-6.9-1.32-10.27-.17-1.53-.35-3.06-.53-4.59-.74-6.07-1.75-10.58-3.27-14.63-.57-1.52-.29-2.49,.99-3.48,1.47-1.14,2.96-2.24,4.45-3.35,.55-.41,1.11-.81,1.67-1.21,.93-.67,1.9-1.37,2.83-2.1,3.59-2.82,6.62-6.52,9-11.01,2.17-4.1,3.9-8.53,5.13-13.16,1.11-4.16,1.57-7.75,1.58-12.4v-.34c-.04-.65-.11-2.17-.27-3.66-.34-2.99-1.04-5.59-2.13-7.95-.64-1.37-1.41-2.44-2.37-3.29-1.43-1.27-2.8-1.84-4.18-1.73-3.35,.26-5.5,2.61-5.92,6.45-.05,.5-.02,1.04,.1,1.53l.09,.35c.19,.78,.39,1.59,.74,2.32,1.05,2.15,1.26,4.54,1.32,6.38,.08,2.4-.12,4.64-.59,6.65-1.05,4.49-2.49,8.33-4.4,11.74-1.51,2.7-3.4,4.93-5.62,6.64-.71,.55-1.44,1.07-2.17,1.59-.44,.32-.88,.63-1.32,.95l-3,2.21c-1.49,1.1-2.98,2.2-4.47,3.29-.12,.08-.35,.2-.6,.06-1.52-.86-2.95-2-4.34-3.09-1.16-.92-2.37-1.87-3.63-2.67-1.2-.76-2.37-1.66-3.45-2.52-2.07-1.64-3.82-3.72-5.21-6.17-2.52-4.46-4.23-9.51-5.07-15-.14-.91-.18-1.85-.21-2.66-.07-2.18,.21-4.08,.86-5.83,.12-.32,.25-.65,.37-.97,.28-.71,.56-1.45,.79-2.2,.4-1.32,.4-2.72,.02-4.3-.68-2.75-3.52-5-5.97-4.74h-.14c-.18,.03-.35,.05-.52,.09-2.19,.59-3.88,1.95-5.03,4.03-.66,1.19-1.19,2.47-1.57,3.8-.88,3.09-1.37,6.3-1.45,9.52-.02,.81,.02,1.7,.12,2.79,.75,7.85,3.06,15.45,6.87,22.57,2.35,4.41,5.4,8.08,9.07,10.92,.95,.74,1.94,1.44,2.9,2.13,.54,.38,1.08,.77,1.61,1.16l.64,.47c1.1,.8,2.23,1.63,3.31,2.48,.44,.34,.85,.78,1.19,1.27,.19,.27,.32,.68,.29,.91-.11,.9-.3,1.74-.57,2.51-1.32,3.79-2.04,7.66-2.51,10.61-.46,2.85-.77,5.76-1.08,8.58-.2,1.89-.41,3.77-.66,5.65-.73,5.57-1.89,11.13-3.44,16.51-1.19,4.12-2.64,8.49-4.43,13.37-1.7,4.62-3.61,9.16-5.66,13.48-1.47,3.08-2.97,5.64-4.6,7.81-2.71,3.63-5.65,7.01-8.75,10.07-.12,.12-.24,.24-.34,.29l-.12,.06c-.3,.15-.59,.29-.87,.35-1.41,.28-2.54,0-3.46-.88-2.64-2.52-5.31-5.53-8.42-9.47-1.92-2.44-3.63-5.21-5.07-8.24-.85-1.79-1.67-3.64-2.45-5.43l-.27-.62c-2.63-5.97-4.78-12.26-6.71-18.18-2.34-7.18-3.93-14.73-4.86-23.1l-.15-1.38c-.34-3.11-.69-6.33-1.14-9.48-.35-2.47-.77-4.66-1.3-6.72-1.88-7.28-5.07-12.87-9.74-17.09-2.69-2.43-5.01-4.32-7.28-5.94-.53-.37-1.05-.74-1.58-1.11-.97-.68-1.98-1.37-2.94-2.1-2.62-1.98-4.76-4.55-6.36-7.64-2.59-5.02-4.15-10.36-4.65-15.87-.12-1.31-.05-2.63,.2-3.94,.23-1.24,.52-2.56,1.02-3.82,.32-.8,.67-1.7,.84-2.65,.47-2.7-.13-4.93-1.78-6.64-1.94-2.01-4.99-2.3-7.24-.69-1.55,1.11-2.73,2.68-3.6,4.81-1.43,3.48-2.08,7.47-2,12.19,.07,4.22,.61,8.01,1.64,11.56,1.23,4.25,2.63,7.96,4.27,11.34,2.75,5.66,6.44,10.2,10.98,13.48,1.67,1.21,3.35,2.41,5.04,3.59,2.08,1.45,4.09,3.14,6.14,5.17,2.12,2.11,3.63,4.66,4.47,7.6,.53,1.84,1.06,3.83,1.3,5.87,.33,2.75,.69,5.49,1.05,8.23,.35,2.67,.7,5.33,1.02,8,.5,4.09,1.26,8.15,2.28,12.08,3.02,11.66,7.13,23.14,12.22,34.13,2.54,5.48,5.75,10.49,9.54,14.9,.93,1.08,1.84,2.18,2.75,3.28,.86,1.04,1.72,2.07,2.6,3.1,.59,.69,1.22,1.3,1.88,1.82,1.94,1.53,3.62,2.58,5.3,3.3,5.09,2.18,9.81,1.64,14.04-1.6,1.05-.81,2.01-1.67,2.85-2.57,1.27-1.35,2.51-2.76,3.72-4.13l1.39-1.57c4.4-4.93,8.07-10.71,11.22-17.69,3.84-8.49,7.17-17.56,10.19-27.72,1.3-4.38,2.25-8.5,2.9-12.61,.45-2.81,.91-5.81,1.2-8.85,.1-1.11,.2-2.16,.61-3.12,.08-.18,.15-.29,.22-.36l.35,2.26c.36,2.32,.73,4.72,1.01,7.09,.38,3.23,1,6.53,1.9,10.08,3.1,12.29,7.45,24.4,12.93,36,2.31,4.89,5.31,9.52,8.9,13.75l.3,.35c1.53,1.8,3.11,3.66,4.62,5.53,1.16,1.44,2.4,2.58,3.8,3.49l.2,.13c.96,.62,1.95,1.26,2.97,1.81,.66,.36,1.42,.66,2.32,.93,.58,.17,1.16,.27,1.73,.37,.22,.04,.43,.07,.64,.11,.77,.15,1.54,.22,2.3,.22,2.68,0,5.25-.92,7.67-2.74,1.28-.96,2.44-2.1,3.31-2.98,.71-.72,1.4-1.5,2.06-2.26,.45-.51,.91-1.03,1.37-1.53,5.42-5.85,9.79-12.7,13.36-20.93,3.76-8.68,7.04-17.83,9.74-27.19,1.3-4.5,2.27-8.99,2.87-13.32,.71-5.11,1.37-10.35,1.95-15.58,.26-2.33,.71-4.58,1.15-6.65,.92-4.29,2.87-7.81,5.78-10.47,2.14-1.95,4.18-3.6,6.24-5.05l.46-.32c1.51-1.06,3.07-2.16,4.57-3.3,3.82-2.92,7-6.77,9.45-11.45,1.84-3.51,3.36-7.28,4.54-11.21,.82-2.74,1.42-5.59,1.85-8.7,.65-4.81,.32-9.65-1-14.39Z"/><path class="cls-2" d="M322.54,504.2c-.27-2.11-1.27-3.75-2.97-4.87-.56-.37-1.22-.72-2-1.06-.56-.25-1.13-.47-1.71-.7-.61-.24-1.23-.49-1.83-.76-2.12-.95-4.18-2.1-6.12-3.43-3.18-2.17-5.26-4.87-6.35-8.25-1.13-3.5-1.67-6.26-1.74-8.96-.05-1.79-.04-3.61-.04-5.37v-.63c0-1.48,.19-3.04,.56-4.78,.49-2.32,.95-4.65,1.41-6.98,.66-3.34,1.34-6.79,2.12-10.16,.44-1.91,.77-3.8,1.03-5.4,.43-2.6,.55-4.95,.37-7.21-.12-1.53-.4-2.97-.87-4.4-.93-2.86-2.01-5.34-3.31-7.61-1.44-2.51-2.96-4.97-4.26-7.04-.73-1.17-1.49-2.32-2.24-3.47-.65-.98-1.29-1.97-1.93-2.96-1.74-2.73-2.65-5.78-2.71-9.06-.02-.88-.02-1.76-.01-2.65,0-.58,0-1.15,0-1.73-.01-1.77,.2-3.63,.67-5.86,.69-3.26,1.57-6.43,2.62-9.42,.99-2.83,1.9-5.74,2.79-8.55,1.21-3.85,2.46-7.84,3.93-11.67,.2-.52,.38-1.05,.54-1.59,.48-1.6,.76-3.28,.82-4.97,.12-3.56-.99-6.72-3.32-9.41-.66-.76-1.51-1.39-2.17-1.85-1.22-.85-2.61-1.46-4.15-1.83-2.65-.64-5.42-1.02-8.22-1.13-2.01-.08-4.01,.2-6.1,.85-1.7,.53-3.21,1.16-4.63,1.92-2.33,1.25-4.82,2.07-7.59,2.5-.54,.08-1.1,.17-1.66,.31-1.47,.37-2.74,1.18-3.88,2.47-1.12,1.27-1.65,3.22-1.39,5.08,.26,1.83,1.24,3.36,2.74,4.31,1.12,.71,2.21,1.08,3.32,1.12,4.42,.17,8.31-.65,11.9-2.48,.37-.19,.75-.39,1.12-.59,.74-.39,1.5-.8,2.27-1.15,.53-.24,1.16-.44,1.98-.62,1.12-.25,2.17,.03,3.13,.83,.66,.55,1.01,1.2,1.08,2,.12,1.36,.02,2.77-.33,4.18-1.03,4.24-2.21,8.72-4.37,12.79-1.32,2.49-2.42,5.26-3.48,8.72-.88,2.88-1.41,5.81-1.58,8.71-.32,5.65,.42,11.21,1.18,15.9,.07,.42,.19,.82,.3,1.21l.12,.42c.79,2.9,1.99,5.63,3.57,8.12,.67,1.04,1.34,2.08,2.01,3.12,.52,.8,1.03,1.6,1.54,2.39l.53,.82c.81,1.26,1.62,2.52,2.4,3.79,.25,.4,.44,.84,.65,1.3,.09,.2,.18,.41,.28,.61,.07,.15,.05,.37-.06,.56-.11,.2-.29,.33-.46,.35-2.22,.21-4.14,.2-5.88-.04-4.87-.68-9.99-1.46-15.67-2.39-.95-.16-1.9-.32-2.86-.48-3.14-.53-6.38-1.08-9.61-1.42-.66-.07-1.32-.18-1.98-.28l-.7-.11c-5.56-.87-11.53-1.65-17.51-1.44-.68,.02-1.38,.02-2.16,0-3.29-.09-6.47,.28-9.83,.67-1.15,.13-2.31,.27-3.47,.38l-.6,.13c-.45,.1-.95,.22-1.44,.34l-5.32,1.27c-.47,.11-1.07-.15-1.3-.59-2.69-5.02-5.76-9.7-8.94-14.46-.47-.7-.93-1.45-1.4-2.3-.78-1.4-1.34-2.85-1.71-4.45-.81-3.53-.88-7.27-.22-11.78,.67-4.57,2.06-8.93,3.33-12.58,.88-2.54,1.7-5.15,2.49-7.67,1.19-3.8,2.42-7.74,3.91-11.5,.76-1.94,1.06-3.99,1.35-5.97,.13-.91,.05-1.83-.07-2.85-.08-.75-.3-1.47-.52-2.21-1.34-4.56-4.36-7.47-8.97-8.66-3.06-.79-6.18-1.17-9.34-1.16-1.33,0-2.64,.19-3.91,.53-2.11,.57-3.98,1.3-5.7,2.21-2.39,1.27-4.94,2.12-7.58,2.53l-.21,.03c-.67,.1-1.36,.21-2.02,.44-2.67,.95-4.33,2.83-4.82,5.44-.31,1.7,.16,3.5,1.31,4.94,1.17,1.47,2.88,2.36,4.69,2.44,4.31,.18,8.04-.53,11.4-2.2,.48-.24,.95-.48,1.43-.73,.8-.42,1.63-.85,2.46-1.22,.71-.31,1.53-.55,2.5-.73,.84-.16,1.81,.15,2.58,.81,.79,.68,1.25,1.61,1.23,2.49-.05,2.01-.28,3.74-.69,5.3-.98,3.7-2,7.3-3.75,10.72-.92,1.8-1.69,3.71-2.44,5.55l-.2,.5c-2.13,5.25-3,10.94-2.64,17.39,.15,2.74,.45,5.41,.72,7.66,.51,4.26,1.81,8.14,3.85,11.53,.87,1.44,1.79,2.87,2.67,4.26l.25,.38c.5,.78,1.01,1.56,1.52,2.34,.79,1.21,1.57,2.41,2.34,3.63,1.24,1.98,2.14,3.88,2.77,5.8,.37,1.15,.58,2.13,.65,3.08,.3,4.16,.12,7.86-.55,11.31-.8,4.12-1.59,8.24-2.37,12.36l-.26,1.36c-.35,1.85-.72,3.76-1,5.66-.63,4.34-.56,9.07,.22,14.87,.4,2.97,1.03,5.61,1.91,8.08,1.18,3.28,2.44,5.8,3.98,7.92,1.91,2.64,7.57,8.17,10.28,10.02,.33,.23,.69,.43,1.04,.63l.4,.23c.86,.51,1.71,.97,2.7,1.1,1.18,.15,2.28,.52,3.44,.91,.4,.13,.81,.27,1.21,.39,.21,.07,.43,.14,.64,.21,.48,.17,.99,.34,1.51,.43,.6,.11,1.18,.16,1.74,.16,2.29,0,4.16-.92,5.56-2.76,1-1.31,1.44-3.02,1.2-4.68-.25-1.7-1.17-3.21-2.61-4.26-.59-.43-1.26-.82-1.98-1.14-.6-.27-1.22-.51-1.83-.75-.58-.23-1.15-.45-1.72-.7-2.36-1.04-4.58-2.28-6.59-3.69-2.91-2.02-4.9-4.58-6.1-7.83-.92-2.49-1.5-5.24-1.78-8.41-.39-4.35-.28-7.67,.36-10.75,1.16-5.6,2.29-11.31,3.37-16.83,.48-2.44,.96-4.88,1.46-7.37,.02-.1,.05-.23,.08-.29l.08-.13c.14-.23,.29-.46,.45-.58,.37-.29,.82-.6,1.32-.76,1.66-.55,3.38-1.12,5.13-1.38l.74-.11c3.46-.52,7.02-1.05,10.59-.92,1.86,.07,3.75,.06,5.58,.05,1.07,0,2.13-.01,3.2,0,1.15,.01,2.18,.03,3.22,.16,2.9,.36,5.55,.72,8.11,1.11l5,.76c5.63,.85,11.45,1.73,17.15,2.73,2.39,.42,4.83,.64,7.19,.86,1.57,.15,3.2,.3,4.79,.5,.77,.1,1.55,.05,2.31,0,.35-.02,.7-.04,1.04-.05,.44,0,.89,0,1.33,0h.28c.16,.02,.49,.42,.49,.63-.03,1.84-.34,3.65-.65,5.33-.22,1.16-.45,2.31-.69,3.46-.2,.99-.41,1.98-.6,2.97l-.42,2.15c-.66,3.35-1.33,6.82-1.7,10.29-.24,2.31-.26,4.49-.05,6.65,.05,.56,.12,1.13,.18,1.69,.09,.88,.19,1.77,.26,2.65,.32,3.93,1.37,7.94,3.2,12.27,1.31,3.09,3.18,5.88,5.57,8.28,1.58,1.59,3.24,3.13,4.85,4.62l.31,.29c1.35,1.25,2.71,2.2,4.14,2.9l.29,.14c.59,.29,1.19,.59,1.86,.72,2.01,.37,3.97,1.05,5.7,1.66,1.06,.37,2.21,.54,3.41,.5,1.84-.06,3.43-.78,4.71-2.14,.93-.98,1.52-2.21,1.77-3.65,.07-.39,.08-.82,.02-1.24Z"/><path class="cls-2" d="M886.49,483.48c-1.1-.3-2.16-.38-3.24-.24-5.32,.66-10.77,.61-15.88,.46-2.12-.06-4.38-.41-7.11-1.09-2.57-.64-5-1.78-7.2-3.4-.63-.46-1.24-1-1.81-1.6-1.89-1.98-3.41-4.23-4.51-6.68-1.18-2.6-1.95-5.41-2.31-8.34-.4-3.25-.85-6.94-.99-10.58-.17-4.43-.74-8.86-1.32-12.99-.8-5.64-2.49-11.31-5.02-16.85-4.29-9.38-13.52-16.98-23.52-19.36-2.76-.66-5.48-.99-8.12-1.3-2.9-.35-5.37-.44-7.66-.27,.21-.18,.42-.35,.64-.52,2.82-2.19,5.62-4.54,8.33-6.98,5.57-5.02,10.75-10.34,14.64-14.42,5.51-5.78,10.49-12.51,15.2-20.56,2.66-4.54,4.57-9.29,5.94-12.92,.06-.15,.1-.31,.14-.46l.04-.15c.4-1.31,.28-2.67-.35-4.16-.7-1.64-1.81-2.8-3.31-3.45-2.84-1.23-6.31-.27-8.08,2.24-.38,.53-.86,1.25-1.24,2.05-.38,.8-.74,1.61-1.09,2.42-.22,.51-.45,1.02-.68,1.53-.18,.4-.36,.8-.55,1.24-.47,1.06-.91,2.07-1.44,3.03-3.83,6.82-7.45,12.09-11.37,16.56-4.53,5.17-9.68,10.4-15.73,15.98-3.29,3.04-5.91,5.26-8.5,7.22-5.28,4.01-10.58,8-15.88,11.99-.18,.13-.43,.26-.7,.39h-.03c-.92-1.03-1.68-2.23-2.48-3.49-.34-.55-.69-1.09-1.05-1.63-.9-1.33-1.53-2.45-1.99-3.5-.84-1.91-1.29-3.82-1.34-5.69-.04-1.38-.04-2.76-.03-4.14v-1.2c0-1.27,.15-2.6,.44-3.95l.25-1.15c.36-1.66,.72-3.37,1.24-4.98,.2-.63,.39-1.26,.57-1.91,.26-.89,.52-1.8,.83-2.66,1.03-2.88,1.96-5.83,2.86-8.69,1.11-3.52,2.25-7.16,3.59-10.65,.71-1.85,1.05-3.77,1.3-5.56,.28-1.97,.09-3.98-.55-5.98-1.09-3.4-3.03-5.93-5.77-7.52-1.71-1-3.36-1.61-5.03-1.87-2.06-.33-4.18-.6-6.48-.85-1.46-.15-3.01-.05-4.75,.33-1.99,.43-3.98,1.11-5.91,2.01-.43,.2-.85,.42-1.26,.64l-.23,.12c-2.08,1.1-4.07,1.74-6.08,1.96l-.21,.02c-.52,.05-1.11,.12-1.73,.33-.91,.31-1.84,.64-2.72,1.19-2.48,1.54-3.73,3.87-3.61,6.73,.12,3.07,2.11,5.64,5.04,6.56,1.37,.43,2.61,.57,3.79,.44,.43-.05,.85-.1,1.33-.16,.61-.08,1.23-.16,1.85-.22,1.91-.17,3.86-.73,6.14-1.76,.75-.34,1.49-.72,2.15-1.07l.09-.05c.39-.2,.78-.41,1.2-.61,.62-.3,1.2-.59,1.78-.8,.57-.21,1.2-.26,1.93-.16,.83,.11,1.77,1.08,1.83,1.88,.1,1.38-.04,2.84-.42,4.33-.97,3.89-2.09,8.01-4.1,11.82-1.33,2.53-2.47,5.39-3.49,8.75-.88,2.92-1.38,5.62-1.54,8.26-.23,4.06-.11,7.67,.39,11.04l.08,.5c.1,.7,.21,1.4,.28,2.1,.47,4.46,1.99,8.74,4.5,12.7,.61,.97,1.24,1.92,1.86,2.88,.65,.99,1.3,1.99,1.93,2.99l.34,.54c1.01,1.6,2.06,3.25,2.99,4.9,1.56,2.76,2.34,5.8,2.32,9.03-.02,2.43-.18,4.64-.51,6.75-.62,4-1.42,8.02-2.19,11.91-.26,1.3-.52,2.59-.77,3.89-.93,4.78-1.76,10.48-.86,16.53,.04,.27,.05,.55,.07,.88,0,.21,.02,.42,.04,.63,.33,4.23,1.44,8.45,3.37,12.91,1.26,2.9,2.95,5.45,5.04,7.58,2.1,2.15,4.23,4.17,6.32,6.01,2.24,1.98,4.71,3.23,7.34,3.73,.59,.11,1.19,.3,1.82,.51,.38,.12,.77,.24,1.15,.35,.94,.26,1.79,.49,2.68,.69,.94,.21,1.96,.23,3.2,.06,2.38-.32,4.53-1.94,5.63-4.22,1.04-2.18,.94-4.6-.3-6.64-.76-1.27-1.68-2.18-2.81-2.8-.6-.32-1.2-.59-1.78-.84-.25-.11-.5-.22-.75-.33-.48-.22-.96-.43-1.43-.65-1.13-.51-2.29-1.03-3.4-1.58-1.04-.52-2.07-1.16-3.12-1.82-3.37-2.12-5.55-4.99-6.69-8.77-1.49-4.97-1.83-10.37-1.07-16.98,0-.05,.02-.1,.04-.21l3.13-15.48c.16-.79,.33-1.59,.5-2.44,.31-1.47,.62-2.95,.9-4.43,.51-2.71,.68-5.36,.49-7.89l-.06-.83c-.06-.76-.12-1.52-.17-2.24,.05-.11,.19-.3,.19-.32l.45-.18c.16-.07,.32-.13,.48-.18,4.87-1.59,10.28-2.56,16.53-2.96,1.14-.07,2.32-.05,3.51,.08,2.49,.26,4.48,.54,6.28,.87,4.29,.78,8.13,2.81,11.4,6.03,1.72,1.69,3.09,3.6,4.06,5.66,1.38,2.93,2.3,5.4,2.89,7.77,1.12,4.47,1.84,9.25,2.2,14.61,.15,2.14,.32,4.27,.5,6.42,.16,1.97,.32,3.94,.46,5.92,.1,1.47,.4,2.88,.68,4.24l.04,.17c.07,.36,.15,.71,.22,1.07,1.1,5.68,3.41,10.98,6.85,15.75,3.44,4.76,7.99,8.36,13.54,10.71,3.98,1.68,8.34,2.74,12.95,3.14,1.94,.17,3.86,.22,5.57,.27,.69,.02,1.34,.04,2.01,.06l2.94-.11c2.06-.08,3.92-.15,5.78-.21,1.75-.06,3.51-.43,5.22-1.12,2.54-1.01,4.1-2.91,4.53-5.47,.52-3.11-1.49-6.3-4.49-7.11Z"/><path class="cls-2" d="M294.26,665.81c-1.69-6.51-4.69-12.62-8.9-18.15-1.69-2.21-3.48-4.3-5.17-6.23-1.15-1.32-2.37-2.62-3.54-3.87-.64-.69-1.29-1.38-1.93-2.08-1.48-1.62-2.55-3.05-3.37-4.51-.54-.97-.77-1.99-.67-3.03,.06-.62,.16-1.41,.43-2.11,.55-1.46,1.25-2.79,2.08-3.95,.59-.82,1.19-1.64,1.79-2.46,.54-.73,1.07-1.46,1.6-2.19,.53-.73,1.06-1.46,1.59-2.19,1.37-1.88,2.79-3.83,4.1-5.8,2.67-4,4.4-8.56,5.13-13.56,.37-2.53,.38-5.08,.03-7.6-.55-3.96-1.87-7.85-3.91-11.56-1.73-3.14-3.95-6.11-6.6-8.85-8.02-8.27-17.45-14.35-28.01-18.05-2.39-.84-4.63-1.33-6.86-1.51-7.74-.62-14.64,.36-21.11,3.01-9.66,3.96-18.33,10.11-25.79,18.3-3.44,3.78-6,8.16-7.61,13.02-1.01,3.07-1.54,5.88-1.59,8.6-.08,3.59,.52,7.15,1.83,10.9,1,2.87,2.31,5.5,3.9,7.82,1.33,1.95,2.74,3.88,4.1,5.75l.6,.82c.66,.91,1.33,1.8,2,2.7,.48,.64,.96,1.28,1.44,1.93,.96,1.3,1.8,2.78,2.5,4.4,.97,2.23,.86,4.23-.34,6.13-.91,1.44-1.95,2.8-3.09,4.03-1.56,1.68-3.11,3.38-4.66,5.07l-1.18,1.29c-1.7,1.85-3.38,3.9-5.14,6.27-3.11,4.18-5.58,8.83-7.34,13.81-1.45,4.1-2.2,7.83-2.31,11.39-.11,3.53,.17,6.57,.84,9.28,.77,3.13,1.91,6.06,3.37,8.69,2.44,4.38,5.19,8.4,8.17,11.94,2.13,2.54,4.52,4.85,7.1,6.87,2.12,1.66,3.98,2.87,5.86,3.82,5.2,2.62,10.75,4.41,16.51,5.33,3.64,.58,7.49,1.14,11.46,1.14,.6,0,1.21-.01,1.82-.04,.73-.03,1.46-.03,2.48-.02,.56,0,1.19,.01,1.96,.01,4.9,.05,9.41-.2,13.43-.75,5.52-.75,10.96-2.25,16.17-4.46,3-1.27,5.86-2.97,8.5-5.06,2.45-1.93,4.71-4.1,6.71-6.43,3.17-3.68,6.03-7.85,8.53-12.4,2.47-4.51,3.82-9.05,4.11-13.89,.26-4.14-.08-7.92-1.03-11.57Zm-89.16-16.31c1.64-1.76,3.33-3.58,4.96-5.4,2.3-2.58,4.16-5.34,5.52-8.21,.9-1.91,1.48-4.01,1.7-6.24,.13-1.26,.05-2.62-.22-4.15-.65-3.56-2.11-7.08-4.48-10.74-.95-1.48-2.01-2.91-3.04-4.29-.45-.6-.89-1.2-1.33-1.81l-1.55-2.13c-1.06-1.46-2.13-2.92-3.17-4.4-.85-1.2-1.57-2.63-2.28-4.5-.62-1.64-.99-3.42-1.11-5.47-.09-1.52,.14-3.13,.7-4.92,.81-2.59,1.88-4.71,3.27-6.49,1-1.28,2.1-2.64,3.33-3.88,3.89-3.91,8.3-7.29,13.1-10.03,4.27-2.44,9.01-3.97,14.5-4.68,.59-.08,1.2-.11,1.81-.11,.68,0,1.37,.05,2.08,.14,5.58,.73,10.48,2.38,14.97,5.04,5.22,3.1,9.84,6.82,13.75,11.04,2.08,2.25,3.69,4.8,4.8,7.58,1.48,3.73,1.55,7.48,.19,11.47-.59,1.75-1.45,3.43-2.54,4.99-1,1.43-2.03,2.85-3.06,4.26-.55,.75-1.1,1.51-1.65,2.27l-1.15,1.59c-1.07,1.47-2.17,2.98-3.2,4.51-1.14,1.69-2.11,3.56-2.95,5.72-.45,1.15-.83,2.39-1.2,3.91-.92,3.79-.48,7.56,1.35,11.53,1.26,2.72,3.02,5.32,5.56,8.18,.99,1.12,2.02,2.21,3.04,3.31,.55,.59,1.1,1.18,1.65,1.78,2.51,2.73,4.49,5.1,6.24,7.46,2.82,3.82,4.84,8.11,6.03,12.75,1.27,4.98,.77,9.76-1.48,14.2-2.1,4.14-4.83,8.07-8.09,11.68-1.22,1.35-2.69,2.68-4.63,4.18-1.18,.92-2.48,1.68-3.85,2.28-5.28,2.32-10.3,3.62-15.36,3.96l-.94,.07c-2.68,.19-5.45,.39-8.16,.06-.28-.04-.57-.03-.86-.02-.12,0-.23,0-.35,0h-.5s-.02,0-.03,0c-.41-.01-.83-.03-1.26,.03-2.9,.37-5.87,.11-8.74-.14l-.93-.08c-4.88-.41-9.85-1.75-14.76-4-1.26-.58-2.47-1.38-3.38-2.01-1.49-1.03-2.93-2.28-4.28-3.69-3.18-3.33-5.99-7.27-8.58-12.04-.81-1.5-1.43-3.22-1.88-5.27-.62-2.78-.6-5.59,.05-8.34,1.2-5.11,3.35-9.76,6.38-13.83,1.72-2.31,3.56-4.52,5.49-6.59l.5-.54Z"/><path class="cls-2" d="M1447.22,235.58c-.09-1.52-.18-3.1-.5-4.65-.97-4.67-2.4-8.79-4.37-12.6l-.83-1.6c-.78-1.51-1.57-3.01-2.32-4.53-.88-1.76-2.02-3.53-3.47-5.4-2.88-3.7-6.28-6.12-10.38-7.42-3.44-1.09-6.35-1.63-9.16-1.71-2.4-.07-5.23-.12-8.1,.02-4.12,.2-8.18,.75-12.05,1.66-1.83,.42-3.24,.94-4.44,1.63-2.63,1.5-3.97,3.77-3.88,6.57,.13,3.75,2.99,6.58,6.79,6.73,1.24,.05,2.45-.08,3.57-.39,3.8-1.04,7.78-1.4,11.64-1.74l.79-.07c3.17-.28,6.46,.08,10.07,1.12,2.09,.6,3.72,1.72,4.85,3.33,3.96,5.67,6.45,11.43,7.61,17.64,.29,1.54,.36,3.03,.21,4.44-.33,3.13-1.1,5.76-2.34,8.06-2.44,4.48-5.13,8.28-8.23,11.61-3.28,3.52-7.24,6.06-11.77,7.57-1.99,.66-4.03,1.21-6.05,1.64-4.34,.91-8.93,1.27-13.61,1.07l-2.71-.12h-.02c-.25,.01-.49,.02-.71,.03-.45,.01-.84,.03-1.23,.07-2.66,.28-5.36,.06-7.96-.15-4.25-.34-8.55-1.28-12.77-2.79-4.13-1.47-7.77-3.83-10.81-7.02-3.42-3.58-6.31-7.68-8.84-12.56-.7-1.36-1.21-2.77-1.51-4.19-.79-3.74-.62-7.49,.5-11.12,1.3-4.21,3.09-7.86,5.48-11.17,1.6-2.22,3.51-4.53,5.82-7.06,.75-.82,1.5-1.63,2.26-2.45,1.07-1.16,2.15-2.32,3.2-3.49,2.04-2.26,3.82-4.85,5.27-7.69,1.34-2.63,1.97-5.52,1.86-8.59-.07-2.07-.42-3.96-1.06-5.79-.88-2.49-1.86-4.57-3-6.34-1.29-2-2.71-3.99-3.94-5.7-.62-.87-1.27-1.72-1.92-2.57-.75-.98-1.49-1.97-2.2-2.97-.99-1.4-1.92-2.85-2.77-4.32-1.53-2.63-2.02-5.54-2.31-8.04-.03-.29-.03-.63,.02-1.03,.41-3.53,1.57-6.7,3.43-9.41,1.01-1.47,1.9-2.6,2.8-3.55,4.57-4.86,9.72-8.83,15.3-11.81,4.02-2.15,8.44-3.49,13.51-4.12,1.22-.15,2.53-.14,3.89,.04,5.42,.7,10.46,2.4,14.96,5.07,4.6,2.73,8.83,6.03,12.57,9.82,1.01,1.02,1.93,2.14,2.61,3,2.48,3.11,4.01,6.72,4.53,10.75,.23,1.73,.48,3.46,.75,5.14,.3,1.82,1.38,3.29,3.22,4.37,1.21,.71,2.55,.81,3.58,.82,.02,0,.04,0,.07,0,1.84,0,3.49-.73,4.91-2.16,.54-.55,.89-1.32,1.05-2.35,.52-3.19,.52-6.52,0-9.9-.14-.89-.38-1.76-.62-2.6l-.07-.25c-1.58-5.66-4.59-10.88-8.95-15.51-5.21-5.54-11.18-10.21-17.73-13.89-3.68-2.06-7.51-3.6-11.1-4.94-2.27-.85-4.6-1.33-6.91-1.41l-.48-.02c-1.92-.07-3.92-.14-5.88-.1-4.97,.11-9.78,1.15-14.71,3.17-9.08,3.72-17.11,9.31-24.56,17.09-1.08,1.12-2.14,2.4-3.36,4.02-2.03,2.72-3.71,5.81-4.98,9.21-1.7,4.54-2.27,9.19-1.68,13.82,.51,4,1.7,7.73,3.54,11.09,.93,1.7,1.96,3.36,3.04,4.94,.89,1.29,1.84,2.55,2.76,3.78,.56,.75,1.13,1.5,1.68,2.26,1.03,1.41,2.37,3.26,3.66,5.15,.78,1.13,1.4,2.44,1.91,4.02,.45,1.39,.34,2.72-.34,4.08-.68,1.37-1.63,2.71-2.89,4.12-1.42,1.57-2.84,3.13-4.27,4.68l-1.94,2.12c-2.14,2.34-4.22,4.91-6.19,7.66-2.45,3.42-4.49,7.27-6.25,11.78-1.42,3.65-2.31,7.72-2.73,12.47-.05,.56-.06,1.17-.03,1.8,.32,6.4,1.85,11.86,4.67,16.7,2.78,4.77,5.42,8.54,8.3,11.85,5.43,6.24,11.49,10.39,18.51,12.69l1.16,.39c.71,.24,1.42,.47,2.13,.69,5.5,1.69,11.3,2.58,17.71,2.72h.67c1.23,.04,2.49,.07,3.74,.07,.26,0,.52,0,.78,0h1.22c4.32-.05,8.8-.1,13.2-.6,4.87-.56,9.83-1.79,15.16-3.75,5.02-1.85,9.63-4.77,13.7-8.66,1.32-1.27,2.53-2.54,3.6-3.79,3.24-3.78,6.11-7.96,8.52-12.41,3.1-5.71,4.49-11.76,4.13-17.99Z"/><path class="cls-2" d="M698.97,454.09c-.03-1.25-.15-2.57-.37-4.03-.88-5.85-2.7-11.63-5.43-17.2-2.6-5.3-5.67-10.27-9.12-14.78-1.06-1.39-2.22-2.84-3.74-4.7-1.46-1.78-2.93-3.54-4.4-5.31l-.7-.84c-2.04-2.44-4.11-5.22-6.34-8.49-1.63-2.41-2.71-4.35-3.47-6.3-.14-.35-.12-.81,.05-1.16,.1-.22,.25-.37,.41-.42,.54-.17,1.07-.34,1.61-.51,.95-.29,1.9-.59,2.83-.92,5.37-1.88,9.89-4.83,13.44-8.77,1.87-2.07,3.33-4.38,4.33-6.86,1.23-3.03,1.92-6.13,2.05-9.21,.14-3.32-.19-6.7-.99-10.04-1.24-5.21-4.1-9.49-8.5-12.74-1.6-1.18-3.46-2.26-5.83-3.38-5.7-2.7-12.12-4.12-20.18-4.49-2.15-.1-4.5,.05-7.38,.45-4.5,.63-9.11,1.62-13.71,2.95-5.79,1.67-12.54,3.57-19.27,5.08l-.31,.07c-7.11,1.6-14.47,3.25-21.9,3.49-.75,.02-1.49,.13-2.04,.22-3.13,.49-6.34,.48-9.79-.04-.62-.09-1.24-.14-1.84-.18-.5-.03-.99-.07-1.48-.13-7.36-.93-12.74-2.61-17.45-5.43-.39-.23-.8-.44-1.21-.64-2.59-1.29-6.41-.78-8.68,1.16-3.66,3.12-3.4,7.94-1.31,10.88,1.24,1.74,2.78,3.13,4.59,4.11,1.18,.64,2.41,1.23,3.65,1.73,8.59,3.49,16.88,5.19,25.32,5.19h1.16c1.21-.01,2.41-.02,3.61,.02,7.52,.2,14.95-.95,21.91-2.15,5.8-1,11.53-2.46,16.9-3.86,4.5-1.18,9.05-2.45,13.46-3.68l1.3-.36c5.38-1.5,10.5-2.14,15.62-1.97,3.2,.11,6.14,.62,9.01,1.56,1.71,.56,3.91,1.39,5.8,2.83,1.47,1.12,2.29,2.5,2.46,4.1,.18,1.7,.19,3.46,.18,5.25-.01,2.06-.83,3.88-2.52,5.55-1.68,1.68-3.71,2.88-6.02,3.57-1.73,.52-3.54,.92-5.13,1.27-1.42,.31-2.88,.87-4.46,1.71-3.95,2.09-6.29,5.62-6.97,10.49-.49,3.52-.09,6.91,1.18,10.08,.57,1.42,1.17,2.89,1.88,4.29,1.23,2.44,2.71,4.88,4.5,7.46,2.26,3.26,4.71,6.48,7.28,9.57l1.17,1.41c1.74,2.08,3.48,4.17,5.18,6.28,3.83,4.74,6.82,9.49,9.14,14.5,.93,2.01,1.64,3.81,2.16,5.5,.97,3.15,1.96,6.91,1.91,10.94-.05,3.84-.56,7.9-1.56,12.42-.48,2.2-1.41,4.4-2.77,6.55-2.25,3.57-5.34,6.66-9.19,9.18-3.27,2.14-7.08,3.82-12,5.28-4.04,1.2-8.29,1.74-12.39,2.26-1.08,.14-2.17,.27-3.18,.42-.9,0-1.8,.01-2.7,.03-1.94,.04-3.96,.08-5.89-.14-4.37-.48-9.04-1.1-13.65-2.43-7.88-2.27-14.58-5.23-20.47-9.06-3.13-2.03-5.78-4.21-8.12-6.67-2.97-3.13-5.32-6.83-6.97-11.01-1.64-4.15-1.95-8.44-.91-12.75,.31-1.32,.77-2.7,1.42-4.35,1.89-4.77,5.23-8.38,9.92-10.71,4.27-2.12,8.38-3.24,12.55-3.4,1.82-.07,3.68-.07,5.49-.07h1.82c.83,0,1.67,0,2.5,0,1.17,0,2.33,0,3.5,0,1.45-.02,2.94-.33,4.71-.97,2.94-1.07,5.37-4.73,5.18-7.83-.1-1.74-.66-3.29-1.66-4.59-1.25-1.64-2.83-2.64-4.69-2.98-1.05-.19-1.91-.29-2.72-.3-1.75-.03-3.51-.02-5.26-.02h-1.57s0-.05,0-.05h-.5c-.63,0-1.25,0-1.88,0-1.35,0-2.75-.02-4.12,.02-7.61,.21-14.97,2.18-21.87,5.86-4.37,2.33-8.2,5.48-11.38,9.36-5.19,6.34-9.17,17.8-8.69,24.98-.16,4.11,.62,8.42,2.39,13.19,1.99,5.37,4.94,10.41,8.77,15,3.39,4.06,7.51,7.66,12.59,11,7.47,4.91,15.85,8.69,24.91,11.22,5.54,1.55,10.69,2.5,15.76,2.92,2.59,.22,5.39,.45,8.24,.45,2.11,0,4.26-.13,6.39-.48,4.33-.1,8.46-.86,11.94-1.59,4.88-1.02,9.27-2.4,13.41-4.19,7.57-3.29,13.91-7.91,18.84-13.73,3.43-4.05,5.84-8.23,7.36-12.77,1.02-3.04,1.77-6.11,2.22-9.12,.61-4.08,.83-8.54,.69-14.02Z"/><path class="cls-2" d="M904.82,199.03c-.5-6.8-1.57-13.38-3.18-19.55-2.98-11.45-7.65-22.28-13.86-32.19-7.31-11.67-17.52-21.04-30.34-27.86-3.75-2-7.52-3.6-11.21-4.76-3.4-1.08-6.42-1.92-9.24-2.58l-.24-.06c-3-.7-6.1-1.43-9.25-1.63-1.92-.12-3.88-.19-5.77-.25-.84-.03-1.67-.06-2.51-.09h-.02s-2.58,.09-2.58,.09c-2.13,.08-4.26,.15-6.38,.26-.95,.05-1.9,.21-2.81,.36l-.4,.07c-4.96,.83-9.88,2.43-14.63,4.77-7.18,3.54-13.07,7.87-18.02,13.24-5.48,5.95-8.81,13.12-9.91,21.31-.43,3.23-.4,6.48,.08,9.67,.66,4.29,1.87,8.44,3.62,12.32,1.36,3.02,2.71,5.63,4.12,7.97,.72,1.2,1.46,2.4,2.19,3.6,.71,1.16,1.41,2.32,2.11,3.48,.38,.62,.74,1.25,1.1,1.88,.38,.66,.76,1.32,1.15,1.97,1.54,2.55,2.15,5.46,1.87,8.89-.12,1.46-.36,2.92-.71,4.32-1.69,6.87-3.97,12.85-6.95,18.28-1.41,2.56-2.68,5.25-3.91,7.85l-.62,1.31c-1.89,3.97-3.2,8.4-4,13.54-.46,2.94-.47,5.99-.03,9.04,.5,3.46,1.55,6.88,3.22,10.46,1.95,4.17,4.82,7.69,8.53,10.44,2.46,1.83,5,3.46,7.56,4.85,2.87,1.56,5.4,2.44,7.95,2.75,.43,.05,.86,.14,1.29,.23,.4,.08,.81,.17,1.21,.22,2.88,.41,5.47,.61,7.89,.61,2.21,0,4.26-.17,6.23-.51,5.7-.97,11.42-2.1,16.28-3.08,4.49-.9,8.78-2.27,13.53-3.83,5.48-1.8,10.78-4.19,15.75-7.11,7.55-4.44,15.15-9.69,22.58-15.62,4.68-3.73,8.73-7.9,12.05-12.4,3.45-4.67,6.32-9.04,8.79-13.35,4.46-7.8,6.98-16.43,7.5-25.68,.06-1.02,.04-2.12-.04-3.25Zm-119.53,34.7c.58-1.26,1.25-2.55,2.04-3.92,3.05-5.34,5.46-11.38,7.58-19.02,.57-2.06,1.28-4.77,1.68-7.52,.99-6.71,.16-12.5-2.54-17.68-.97-1.87-2.06-3.82-3.42-6.15-.79-1.35-1.61-2.69-2.42-4.02-.84-1.38-1.69-2.77-2.51-4.17-1.95-3.32-3.36-6.52-4.33-9.78-2.42-8.14-.72-15.55,5.06-22.01,.96-1.07,2.02-2.1,3.16-3.05,4.89-4.1,10.24-7.04,15.91-8.74,2.16-.65,3.85-.99,5.5-1.12,.84-.07,1.68-.16,2.52-.26,.85-.1,1.7-.2,2.55-.26,.39-.03,.78-.04,1.17-.04,.33,0,.65,0,.98,.01,.33,0,.67,.01,1,.01h0c6.74-.03,13.19,1.43,18.08,2.72,8.84,2.33,17.08,6.63,24.48,12.76,4.31,3.57,8.13,7.84,11.35,12.67,6.27,9.42,10.8,19.95,13.45,31.29,.91,3.92,1.55,7.88,2.04,11.24,.11,.77,.15,1.58,.18,2.36v.13c.29,6.58-1.31,13.11-4.89,19.94-2.65,5.06-6.03,9.74-8.69,13.25-2.73,3.61-6.11,6.93-10.35,10.15-6.41,4.88-11.9,8.67-17.26,11.93-4.43,2.69-9.31,4.95-14.91,6.91-7.95,2.78-16.55,4.57-27.91,5.81-2.31,.25-4.63,.25-6.89-.02-5.21-.61-9.44-2.45-12.95-5.62-.63-.57-1.23-1.13-1.62-1.77-2.35-3.81-3.34-7.47-3.03-11.18,.22-2.66,.86-5.31,1.89-7.89,.9-2.26,1.89-4.4,3.08-6.97Z"/><path class="cls-2" d="M1237.5,545.68h0c-1.97-1.35-4.03-1.57-6.13-.65-1.26,.55-2.28,1.38-3.03,2.47-.58,.83-1.04,1.78-1.38,2.81l-.32,1.02c-.28,.91-.58,1.85-.92,2.74-1.35,3.52-3.63,6.16-6.78,7.83-2.49,1.33-5.18,2.33-8.01,2.99-2.66,.62-5.62,.91-9,.88-4.23-.04-8.3-.88-12.08-2.5-.53-.22-1.05-.46-1.57-.69l-.12-.05c-.39-.17-.79-.35-1.18-.52-.7-.3-1.39-.61-2.08-.92-1.61-.72-3.28-1.46-4.98-2.12-6.94-2.71-13.53-4-20.24-3.97h-.67c-.38,0-.75,0-1.13,0-4.26,.04-8.56,.92-12.78,2.63-5.5,2.22-9.46,6.08-11.76,11.47-.71,1.66-1.16,3.5-1.38,5.65-.19,1.81,.21,3.54,.53,4.93,.78,3.37,2.46,6.33,5,8.81,1.32,1.29,2.86,2.4,4.69,3.39,4.48,2.42,9.69,3.53,15.97,3.36h.14c.96-.14,1.92-.25,2.93-.36,2.13-.24,4.34-.48,6.52-.98,3.7-.85,6.85-1.91,9.65-3.26,.48-.23,.97-.46,1.46-.68-.67,1.83-1.58,3.59-2.48,5.24-1.83,3.35-3.16,5.96-4.33,8.47-1.2,2.55-2.19,5.16-2.94,7.76-.69,2.37-1.15,4.68-1.36,6.88-.2,2.1-.25,4.36-.15,6.92,.1,2.59,.61,5.23,1.61,8.31,1.13,3.48,2.86,6.72,5.28,9.91,.54,.7,1.09,1.39,1.69,2.14,.46,.58,.93,1.15,1.38,1.74,.9,1.17,1.68,2.21,2.37,3.19,.76,1.08,1.36,2.29,1.77,3.6,.18,.58,.29,1.04,.33,1.44,.24,2.52,.13,4.69-.34,6.64-.27,1.11-.61,2.42-1.1,3.66-.5,1.28-.99,2.56-1.47,3.85-.36,.96-.72,1.92-1.09,2.88-1.92,4.97-3.13,10.24-3.6,15.66-.25,2.89-.07,5.75,.54,8.49,1.46,6.52,4.94,11.55,10.35,14.95,2.49,1.56,5.31,2.78,8.6,3.71,1.61,.46,3.23,.68,4.96,.68,.89,0,1.81-.06,2.75-.18,2.23-.29,3.98-1.47,5.06-3.43,1.05-1.89,1.09-4.05,.13-5.92-.97-1.88-2.83-3.19-4.86-3.42l-.15-.02c-.44-.05-.93-.11-1.45-.07-1.51,.09-2.97-.28-4.7-.87-1.42-.48-2.75-1.17-3.96-2.06-1.52-1.11-2.58-2.49-3.25-4.24-.46-1.2-.73-2.35-.83-3.51-.11-1.26-.1-2.53,.02-3.76,.35-3.54,1.11-6.94,2.26-10.11,.95-2.61,1.76-4.73,2.54-6.66,1.38-3.43,2.3-7.1,2.82-11.22,.41-3.25,.09-6.63-.98-10.35-.71-2.5-1.88-4.88-3.56-7.27-.85-1.21-1.75-2.37-2.62-3.49l-.12-.15c-.36-.47-.73-.94-1.09-1.42-.31-.41-.62-.81-.94-1.21-.71-.9-1.37-1.75-1.97-2.65-2.63-3.99-3.73-8.41-3.27-13.12,.4-4.09,1.32-7.6,2.82-10.73,.94-1.96,1.94-3.93,2.95-5.91l.65-1.28c.47-.93,.95-1.85,1.43-2.77l.14-.27c.3-.58,.6-1.15,.9-1.73,1.35-2.63,2.35-5.52,3.04-8.83,.45-2.14,.34-4.26-.34-6.49-1.28-4.22-5.47-7.39-9.83-7.39-.12,0-.24,0-.36,0-2.36-.12-4.66,.37-6.83,1.47l-.67,.34c-.95,.48-1.92,.98-2.89,1.42l-.12,.05c-.99,.45-2.02,.92-3.02,1.24-4.89,1.54-9.78,2.17-14.5,1.86-2.01-.13-3.95-.7-5.77-1.71-.47-.26-.96-.62-1.56-1.13-.54-.46-.9-.97-1.07-1.51-.53-1.65-.41-3.08,.38-4.37,.99-1.62,2.43-2.76,4.4-3.49,1.73-.64,3.61-.99,5.39-1.29,2.41-.41,4.59-.44,6.64-.09,.55,.09,1.11,.15,1.66,.21l.64,.07c3.48,.4,6.99,1.31,10.44,2.7,2.9,1.17,5.43,2.27,7.72,3.37,5.64,2.72,11.95,4.17,19.27,4.42,.46,.02,.98,.04,1.52,0l1.07-.09c3.08-.25,6.26-.51,9.39-1.29,4.3-1.07,8.11-2.55,11.63-4.53,4-2.25,7.3-5.43,9.8-9.46,2.4-3.87,3.62-8.09,4.49-11.74l.03-.18c.25-2.67-.63-4.72-2.63-6.09Z"/><path class="cls-2" d="M873.52,693.56c-.51-1.81-.73-3.75-.67-6.12,.02-.78,.01-1.56-.01-2.33-.22-7.37-1.45-13.68-3.76-19.29-.3-.72-.57-1.45-.84-2.17-.27-.71-.54-1.42-.82-2.12-1.36-3.32-3.07-6.61-5.08-9.78-2.53-3.98-5.11-7.48-7.9-10.71-3.68-4.26-7.32-7.58-11.13-10.16-5.22-3.53-10.8-6.69-16.58-9.41-2.74-1.29-4.91-2.14-7.03-2.77-1.28-.38-2.55-.82-3.77-1.3-1.07-.42-2.33-.96-3.48-1.76-1.69-1.17-2.35-2.58-2.07-4.43,.08-.56,.17-1.12,.29-1.67,.6-2.74,1.42-5.5,2.44-8.2,1.34-3.58,2.9-7.75,4.32-11.93,1.89-5.55,2.81-11.32,2.72-17.15-.09-6.25-1.56-12.1-4.34-17.38-4.35-8.24-10.59-14.85-18.53-19.65-4.45-2.69-9.52-4.22-15.52-4.7-2.97-.24-6.01-.05-9.3,.58-6.51,1.24-12.32,3.94-17.28,8.02-7.64,6.3-12.76,14.67-15.21,24.88-.79,3.28-1.12,6.69-1.02,10.42,.12,4.06,.67,8.19,1.7,12.64,1.59,6.86,4.27,13.52,8.2,20.36,.74,1.3,1.52,2.57,2.3,3.85,.62,1.02,1.25,2.04,1.85,3.07l.13,.22c.81,1.38,1.65,2.82,2.34,4.28,1.37,2.93,1.91,5.59,1.66,8.11l-.08,.86c-.39,4.02-.8,8.18-1.85,12.15-.74,2.81-1.42,5.64-2.02,8.42-.99,4.62-1.78,8.82-1.42,13.43,0,.45,0,.91-.01,1.39-.02,1.17-.04,2.39,.04,3.62,.06,1.05,.21,2.11,.35,3.13,.09,.68,.19,1.36,.26,2.04,.54,5.17,1.69,10.56,3.64,16.96,.68,2.24,1.52,4.43,2.49,6.51,1.25,2.68,2.67,4.95,4.33,6.93,1.78,2.12,3.91,3.56,6.35,4.29,.63,.19,1.26,.28,1.9,.28,.77,0,1.55-.14,2.35-.41,2.09-.71,3.7-2.4,4.3-4.54,.61-2.15,.11-4.39-1.36-6.14-.58-.69-1.14-1.24-1.72-1.68-1.3-.99-2.32-2.34-3.28-4.37-.64-1.34-1.13-2.54-1.5-3.67-1.84-5.58-3.07-11.22-3.65-16.74l-.13-1.25c-.14-1.27-.28-2.59-.37-3.89l-.03-.5c-.09-1.33-.18-2.7-.03-4.01l.09-.8c.28-2.54,.56-5.16,1.19-7.67,.66-2.62,1.52-6.08,2.26-9.54,1.42-6.59,2.01-12.08,1.87-17.25-.08-3.01-.68-6-1.82-9.14-.68-1.88-1.52-3.66-2.47-5.29-.57-.97-1.15-1.93-1.73-2.9l-.64-1.06c-.38-.63-.77-1.27-1.15-1.9-.8-1.31-1.63-2.67-2.4-4.02-4.19-7.39-6.68-14.77-7.58-22.58-.42-3.65-.35-6.69,.25-9.57,1.54-7.47,5.15-13.59,10.73-18.18,2.79-2.3,6-3.86,9.54-4.64,3.17-.7,6.11-.82,8.97-.37,3.3,.52,6.2,1.64,8.85,3.41,3.93,2.63,7.29,6.07,10.26,10.51,.86,1.29,1.56,2.74,2.14,3.99,.65,1.39,1.33,3.05,1.56,4.77,.35,2.7,.67,5.58,.38,8.49-.37,3.74-1.08,7-2.16,9.98l-.78,2.15c-.97,2.67-1.96,5.42-2.99,8.11-1.21,3.15-2.18,6.42-2.99,9.99-.63,2.78-.8,5.72-.52,8.75,.28,2.97,1.43,5.7,3.44,8.1,2.45,2.93,5.63,5.22,9.45,6.82,.99,.41,2.02,.76,3.01,1.09,.63,.21,1.27,.42,1.89,.65,.47,.17,.94,.34,1.42,.51,1.48,.53,3.02,1.08,4.46,1.74,4.92,2.21,9.8,4.92,14.51,8.06,2.12,1.41,3.87,2.8,5.34,4.23,5.01,4.88,9.27,10.55,12.66,16.85,1.32,2.45,2.33,5.11,3.31,7.68l.07,.19c1.88,4.94,2.77,9.67,2.71,14.5-.01,1.31-.03,2.67,.03,4.01,.08,1.73,.21,3.44,.35,5.19,.11,1.3,.42,2.63,.97,4.05,1.15,2.97,4.54,5.48,8.57,4.29,2.41-.71,4.93-3.13,5.1-6.37,.05-.9,.06-1.96-.25-3.02Z"/><path class="cls-2" d="M1446.94,657.51c-1.7-8.7-5.13-16.78-10.2-24.01-2.22-3.16-4.75-6.32-7.53-9.39-2.27-2.51-4.56-4.97-6.69-7.26-1.47-1.58-2.78-3.22-3.89-4.9-.59-.89-1.04-1.89-1.4-3.06-.24-.81-.28-1.67-.09-2.54,.42-1.99,1.23-3.89,2.39-5.63,1.37-2.04,2.92-4.22,4.9-6.86l.16-.21c2.31-3.08,4.69-6.27,6.82-9.56,2.7-4.17,4.62-8.8,5.72-13.75,.95-4.28,1.02-8.82,.21-13.49-.16-.9-.72-1.57-1.2-2.06-1.14-1.16-2.46-1.86-3.95-2.1-2.29-.36-4.7-.3-7.17,.16-.94,.18-1.61,.79-2.03,1.24-.9,.96-1.46,2.13-1.64,3.4-.18,1.32-.29,2.71-.32,4.26-.05,2.15-.26,3.88-.66,5.47-.83,3.25-2,5.93-3.57,8.18-1.91,2.73-3.94,5.53-6.19,8.55l-.71,.96c-1.71,2.29-3.48,4.65-4.98,7.16-1.81,3.03-3.15,6-4.07,9.09-1.46,4.88-1.3,9.63,.5,14.13,.58,1.45,1.18,2.72,1.84,3.88,1.67,2.93,3.65,5.64,5.86,8.05l2.82,3.06c1.45,1.57,2.89,3.15,4.34,4.72,2.42,2.63,4.64,5.37,6.6,8.16,4.12,5.87,6.69,12.34,7.63,19.24,.13,.98,.17,1.88,.1,2.7-.36,4.33-1.26,7.71-2.82,10.63-2.99,5.6-6.27,10.26-10.03,14.26-1.48,1.57-3.16,3.01-4.63,4.24-1.76,1.47-3.89,2.74-6.5,3.89-7.58,3.31-16.24,4.92-26.47,4.92-.77,0-1.56-.05-2.33-.11-1.14-.09-2.32-.17-3.49-.06-4.98,.5-9.89-.1-14.64-.68-4.45-.54-8.64-1.86-12.16-3.09-4.91-1.71-9.22-4.57-13.18-8.74-3.93-4.14-7.35-8.99-10.46-14.81-1.94-3.64-2.49-7.6-2.76-10.64-.04-.46-.04-.9,.02-1.3,.4-3.07,.77-5.63,1.63-8.18,1.65-4.91,3.81-9.17,6.61-13,2.04-2.79,4.47-5.7,7.64-9.15,1.61-1.75,3.23-3.49,4.85-5.23l.42-.45c2.02-2.17,3.85-4.58,5.58-7.36,1.23-1.98,2.25-4.16,3.01-6.48,.51-1.54,.79-3.16,.87-4.98,.13-2.98-.27-5.76-1.2-8.5-1.16-3.4-2.41-6.07-3.93-8.38-1.61-2.46-3.36-4.88-5.04-7.21l-.22-.3c-.8-1.11-1.63-2.21-2.45-3.31-.87-1.16-1.74-2.31-2.58-3.49-1.12-1.56-2.53-3.65-3.52-5.96-2.12-4.96-2.63-8.88-1.65-12.7,.06-.25,.12-.51,.18-.77,.04-.2,.09-.41,.14-.61,.29-1.18,.02-2.3-.2-3.04-.2-.67-.43-1.38-.78-2.06-1.31-2.58-3.32-3.9-5.99-3.92-1.45,.01-2.9,.26-4.31,.83-3.2,1.29-5.19,3.67-5.9,7.08-.36,1.72-.39,3.46-.42,5.15,0,.42-.01,.84-.03,1.26-.16,5.57,1.19,11.2,4.14,17.18,1.13,2.3,2.5,4.56,4.05,6.7,.91,1.25,1.83,2.5,2.76,3.74,1.04,1.4,2.07,2.79,3.09,4.2,1.53,2.11,3.01,4.19,4.42,6.33,1.17,1.79,1.93,3.69,2.27,5.66,.1,.57,.08,1.25-.06,1.9-.25,1.21-.79,2.4-1.64,3.65-1.06,1.56-2.35,3.15-3.94,4.86-2.19,2.35-4.45,4.79-6.68,7.27-3.56,3.95-6.39,7.61-8.68,11.2-4.09,6.42-6.92,13.22-8.41,20.21-2.09,9.75-.73,19.28,4.05,28.32,2.64,4.99,5.86,9.79,9.86,14.68,2.29,2.8,4.92,5.42,8.04,8.02,2.9,2.41,5.61,4.23,8.28,5.54,6.12,3.01,12.45,5.09,18.81,6.2,4.39,.77,9.5,1.52,14.78,1.52,.71,0,1.43-.01,2.15-.04,1.11-.05,2.25-.03,3.36-.02,.35,0,.7,0,1.06,0l2.53,.03c1.44,0,2.88,0,4.31,0,7.49-.02,14.79-1.04,21.71-3.03,11.46-3.31,19.06-7.07,28.79-18.48,.46-.54,.91-1.1,1.34-1.67,2.67-3.5,5.18-7.25,7.47-11.17,2.64-4.52,4.44-9.45,5.35-14.65,.81-4.63,.79-9.18-.05-13.51Z"/><path class="cls-2" d="M428.81,285.4c-2.36-.02-4.71-.14-7.06-.38-4.19-.43-7.93-1.94-11.5-4.15-4.13-2.56-7.22-6-9.56-10.18-2.14-3.8-3.65-7.82-4.11-12.19-.1-.98-.36-1.94-.42-2.91-.1-1.56-.27-3.15-.11-4.7,.39-3.9,.77-7.8,1.86-11.61,1.85-6.42,3.95-12.75,6.91-18.75,.78-1.58,1.56-3.17,2.27-4.79,.64-1.43,1.18-2.91,1.78-4.36,.83-2.03,1.1-4.16,1.08-6.34-.01-1.99-.33-3.9-1.15-5.73-1.59-3.59-2.98-7.25-4.14-11.01-1.98-6.42-3.05-12.98-3.14-19.7-.05-3.53-.06-7.07,0-10.6,.12-6.74,1.44-13.26,3.78-19.56,1.51-4.07,3.66-7.81,6.41-11.19,2.39-2.94,5.27-5.28,8.62-7.01,3.86-1.99,7.94-3.37,12.22-4.13,4.27-.75,8.54-1.28,12.88-1.06,4.71,.24,9.38,.79,13.94,2.1,1.71,.49,3.36,1.1,4.96,1.84,3.57,1.64,7.01,3.54,10.25,5.77,3.58,2.46,6.74,5.39,9.57,8.68,4.07,4.73,6.63,10.2,7.81,16.28,1.15,5.91,.56,11.71-1.59,17.37-3.71,9.79-10.19,17.1-19.42,22.01-3.47,1.85-7.12,3.3-10.72,4.86-1.61,.7-3.31,1.26-4.68,2.43-.41,.35-.37,1.19,.12,1.46,.34,.19,.65,.47,1.02,.58,1.88,.57,3.76,1.11,5.65,1.64,2.45,.69,4.92,1.36,7.37,2.07,6.9,1.98,13,5.49,18.53,9.99,5.81,4.72,9.73,10.72,11.75,17.93,.32,1.13,.57,2.29,.71,3.45,.73,5.98-.1,11.74-2.59,17.25-1.96,4.33-4.64,8.19-7.73,11.78-5.74,6.65-12.6,11.77-20.77,15.09-7.12,2.9-14.44,5.02-22.07,6.12-4.47,.64-8.96,1.09-13.46,1.46-1.76,.15-3.53,.14-5.29,.2Zm14.6-156.28c-.63,0-1.61,0-2.6,0-4.59,.03-8.94,1.15-13.13,2.98-2.59,1.13-4.63,2.92-6.24,5.24-1.35,1.95-2.47,4.03-3.24,6.26-1.29,3.72-2.33,7.5-2.54,11.47-.07,1.37-.27,2.74-.36,4.11-.09,1.57-.24,3.14-.16,4.71,.19,3.73,.48,7.45,.75,11.17,.06,.78,.23,1.56,.37,2.33,.85,4.66,2.29,9.14,4.06,13.52,.59,1.46,1.25,2.89,1.8,4.35,1.19,3.15,1.84,6.39,1.87,9.78,.03,3.39-.6,6.65-1.64,9.84-.73,2.24-1.59,4.44-2.61,6.57-.77,1.59-1.51,3.2-2.3,4.78-2.73,5.48-4.66,11.25-6.25,17.13-.82,3.04-1.3,6.13-1.26,9.32,.03,2.39,.36,4.71,1.04,6.97,.92,3.05,2.39,5.81,4.69,8.07,.7,.69,1.46,1.3,2.35,1.75,2.31,1.17,4.72,1.91,7.32,2.05,1.77,.1,3.53,.19,5.3,.03,2.74-.25,5.47-.63,8.21-.75,3.55-.16,7.03-.79,10.5-1.47,5.8-1.15,11.42-2.87,16.8-5.37,2.87-1.33,5.55-2.94,8-4.94,3.37-2.75,6.27-5.94,8.78-9.49,1.26-1.78,2.24-3.7,2.99-5.74,1.62-4.45,1.53-8.83-.48-13.18-1.26-2.72-2.98-5.08-5.23-7.04-4.34-3.81-9.25-6.63-14.82-8.23-2.83-.81-5.69-1.52-8.52-2.36-2.45-.72-4.88-1.5-7.29-2.34-2.05-.72-3.94-1.77-5.7-3.05-1.12-.82-2.16-1.72-2.99-2.83-1.86-2.48-2.63-5.22-1.98-8.32,.33-1.56,.87-3.01,1.65-4.39,1.69-2.96,3.99-5.34,6.85-7.17,1.66-1.06,3.39-1.98,5.2-2.76,1.8-.78,3.63-1.51,5.42-2.32,2.32-1.05,4.66-2.09,6.92-3.27,3.9-2.04,7.06-4.95,9.52-8.61,1.55-2.31,2.71-4.8,3.41-7.48,.85-3.29,.82-6.63-.06-9.92-.83-3.08-2.31-5.83-4.4-8.25-4.74-5.51-10.76-9.09-17.47-11.64-.55-.21-1.14-.29-1.71-.45-3.44-.98-6.97-1.13-10.87-1.05Z"/><path class="cls-2" d="M706.28,244.65c-.8-1.69-2.05-2.93-3.71-3.69-2.1-.95-4.34-.93-6.49,.06-1.56,.72-3.03,1.64-4.4,2.52-4.32,2.77-8.1,5.23-11.55,7.53-6.33,4.21-13.48,7.65-21.26,10.23-7.34,2.43-14.7,3.99-21.89,4.63l-.25,.02c-5,.45-10.18,.91-15.25,.16-.87-.13-1.72-.06-2.55-.1-4.87-.25-9.85-1.18-15.23-2.84-4-1.23-7.83-3.27-11.4-6.05-4.77-3.73-7.95-8.73-9.73-15.31-.22-.83-.3-1.7-.34-2.38-.39-6.3,.15-11.72,1.67-16.55l.37-1.17c.44-1.41,.89-2.81,1.31-4.22,1.87-6.27,1.98-12.6,.32-18.82-.32-1.19-.71-2.37-1.09-3.51-.14-.43-.29-.86-.42-1.29-.18-.56-.37-1.11-.56-1.66-.34-1.01-.7-2.05-.98-3.08-1.25-4.58-1.49-8.44-.75-12.14,.56-2.84,1.5-5.49,2.86-8.09,1.28-2.43,2.88-4.76,4.9-7.12,2.08-2.43,4.43-4.82,6.99-7.09,6.59-5.86,13.63-10.77,20.92-14.59,6.28-3.3,11.51-5.7,16.44-7.56,5.33-2.01,11.7-4.22,18.51-5.4,3.77-.65,8.24-1.14,12.77,.25,.23,.07,.47,.1,.71,.13,2.62,.29,4.87-.51,6.66-2.39,2.46-2.58,2.8-6.21,.85-9.26-1.1-1.72-2.62-2.97-4.51-3.72-2.15-.85-4.25-1.34-6.24-1.44-1.86-.1-4.16-.22-6.34,.03-5.04,.58-9.97,1.22-14.86,2.67-6.1,1.82-14.08,4.39-21.77,8.09-1.5,.72-3.01,1.44-4.52,2.14-10.16,4.76-19.85,11.16-28.78,19-4.02,3.53-7.43,7.1-10.44,10.93-2.68,3.42-4.9,7.04-6.59,10.76-2.53,5.58-3.71,10.8-3.6,15.97,0,.41,0,.81-.01,1.22-.16,3.87,.4,7.84,1.75,12.51,.28,.95,.6,1.9,.91,2.81,.16,.46,.31,.91,.46,1.37l.41,1.22c.33,.97,.65,1.95,.94,2.93,1.03,3.46,1.04,6.9,.02,10.2-.32,1.03-.61,2.07-.9,3.11-.33,1.17-.66,2.34-1.02,3.5-1.09,3.47-1.8,7.21-2.24,11.77-.43,4.39-.36,8.01,.21,11.38,.79,4.65,2.28,9.07,4.43,13.15,2.94,5.57,6.41,9.91,10.6,13.29,5.24,4.21,10.99,7.36,17.09,9.36,7.09,2.32,14.58,3.58,22.91,3.86,.7,.02,1.4,.03,2.11,.03,.6,0,1.19,0,1.78-.01,.59,0,1.18-.01,1.77-.01h.16c4.28,.04,8.7,.08,13.05-.51,7.29-.98,12.8-2.07,17.87-3.53,11.13-3.19,20.51-7.33,28.69-12.63,5.08-3.3,10.16-6.6,15.22-9.92,.74-.49,1.42-1.03,2.03-1.61,2-1.91,3.72-5.46,1.98-9.15Z"/><path class="cls-2" d="M469.34,585.17c-.79-3.24-1.84-6.45-2.84-9.46-2.52-7.55-6.71-14.44-12.81-21.05-1.22-1.32-2.63-2.58-4.2-3.75-5.57-4.16-11.61-6.94-17.94-8.27-1.87-.39-3.81-.62-5.52-.83-8.08-.97-16.02,.38-23.62,4-8.19,3.9-13.87,10.34-16.9,19.13-.98,2.84-1.49,5.81-1.98,8.68l-.07,.4c-.47,2.75-.54,5.69-.21,8.73,.77,6.98,2.27,13.07,4.59,18.6l.29,.69c1.86,4.44,3.78,9.02,6.13,13.34,1.35,2.47,2.5,5.09,3.62,7.63l.55,1.25c1.4,3.16,1.92,6.51,1.56,9.97-.06,.59-.16,1.17-.25,1.76l-.1,.65c-.66,4.25-1.61,8.13-2.91,11.85-.5,1.42-.96,2.86-1.43,4.29-.23,.71-.46,1.43-.7,2.14-.99,2.99-1.81,6.01-2.45,8.95-.92,4.26-1.77,8.82-1.69,13.26-.16,8.66,1.9,16.51,6.31,23.99,2.22,3.76,4.99,6.89,8.24,9.31,1.02,.76,2.14,1.4,3.19,1.98,1.14,.62,2.46,.93,4.02,.93,.13,0,.27,0,.41,0,2.55-.08,4.6-1.21,6.09-3.35,1.67-2.4,1.68-6.54-1.2-9.07-.86-.75-1.82-1.37-2.57-1.83-2.17-1.33-3.9-3.15-5.28-5.56-2.34-4.06-3.51-7.37-3.81-10.73-.04-.5-.14-.99-.24-1.47-.07-.33-.13-.66-.18-.99-.27-1.87-.28-3.39-.06-4.76,.17-1,.3-2.01,.44-3.02,.3-2.19,.61-4.46,1.21-6.63l.46-1.69c.54-1.97,1.1-4.01,1.74-5.98,.39-1.21,.79-2.41,1.19-3.61,.38-1.13,.75-2.27,1.12-3.4,1.75-5.35,2.89-11.06,3.41-16.97,.36-4.12-.08-8.08-1.32-11.75-.66-1.97-1.25-3.62-1.95-5.23-1.6-3.68-3.16-6.96-4.79-10.03-2.2-4.15-4.2-8.73-6.12-14.03-1.76-4.85-2.61-9.87-2.52-14.91,.06-3.25,.65-6.43,1.77-9.47,1.43-3.89,3.99-6.89,7.59-8.9,3.82-2.13,7.57-3.21,11.49-3.3,1.7-.04,3.62-.09,5.47,.09,9.68,.91,17.11,5.29,22.1,13.04,2.72,4.23,4.97,8.83,6.68,13.7l.05,.15c.31,.89,.64,1.81,.83,2.73l.22,1.04q1.16,5.43,.35,10.21l-.22,1.32c-.49,2.91-1.66,5.58-3.57,8.16-1.37,1.85-3.05,3.22-4.99,4.07-.94,.41-1.88,.8-2.83,1.19-.95,.39-1.9,.79-2.84,1.2-2.66,1.17-5.3,2.36-7.86,3.55-2.02,.93-3.96,2.21-5.75,3.8-2.43,2.15-4.15,4.8-5.09,7.89-.58,1.91-.55,3.84,.11,5.76,.96,2.8,2.76,5.14,5.35,6.96,3.83,2.69,8.4,4.35,13.97,5.07,.79,.1,1.58,.05,2.35,0h.2c1.52-.1,2.98-.71,4.2-1.78,2.02-1.76,2.9-4.01,2.54-6.48-.4-2.76-2.06-4.76-4.8-5.8-.74-.28-1.52-.44-2.27-.6-.45-.09-.91-.19-1.35-.31l-.1-.03c-.73-.2-1.42-.39-1.98-.82-.08-.06-.11-.11-.11-.11,0-.01,.02-.06,.1-.13,.41-.39,.84-.79,1.3-1,1.69-.73,3.38-1.44,5.08-2.16,1.71-.72,3.42-1.43,5.12-2.17,5.24-2.27,9.41-5.72,12.39-10.23,1.44-2.18,2.62-4.32,3.59-6.54,1.48-3.38,2.12-6.92,2.52-9.63,.71-4.87,.54-9.33-.51-13.64Z"/><g><path class="cls-2" d="M674.11,650.5c-1.45-5.93-4.03-11.6-7.65-16.85-1.89-2.74-4.09-5.46-6.91-8.56-1.19-1.31-2.39-2.6-3.6-3.89l-1.5-1.61c-1.39-1.49-2.49-2.97-3.36-4.52-.51-.9-.73-1.93-.66-3.05,.07-1.1,.34-2.15,.82-3.13,.87-1.79,1.99-3.56,3.64-5.75,.46-.61,.92-1.22,1.39-1.82,.93-1.2,1.88-2.45,2.78-3.71,1.5-2.11,2.73-3.9,3.85-5.79,2.04-3.45,3.39-7.13,4.01-10.93,.93-5.76,.28-11.36-1.94-16.64-1.88-4.46-4.56-8.53-7.98-12.1-6.16-6.43-13.03-11.51-20.41-15.1-1.5-.73-3.06-1.36-4.57-1.97-.78-.32-1.57-.63-2.34-.96-2.06-.88-4.35-1.47-6.8-1.78-4.25-.52-8.35-.48-12.2,.12-3.35,.53-6.3,1.29-9,2.34-8.6,3.32-16.33,8.36-23.65,15.42-1.88,1.82-3.42,3.5-4.7,5.16-2.54,3.29-4.52,6.88-5.89,10.68-1.5,4.19-2.04,8.46-1.59,12.69,.43,4.05,1.55,7.81,3.33,11.16,1,1.88,1.97,3.52,2.98,4.99,1.01,1.48,2.09,2.93,3.13,4.34,.54,.73,1.09,1.46,1.62,2.2l.21,.29c1.17,1.61,2.34,3.22,3.47,4.86,.8,1.15,1.43,2.46,1.92,4.01,.47,1.45,.36,2.83-.3,4.08l-.05,.09c-.33,.62-.67,1.27-1.09,1.81-1.02,1.32-1.97,2.48-2.9,3.53-.97,1.08-1.96,2.15-2.95,3.22-.84,.91-1.68,1.81-2.5,2.73-2.46,2.72-4.58,5.4-6.47,8.19-2.99,4.4-5.3,9.34-6.86,14.69-.89,3.04-1.19,6.16-1.48,9.17-.07,.73,0,1.45,.06,2.16l.02,.23c.08,.85,.18,1.69,.28,2.54l.11,.91c.37,3.15,1.25,6.17,2.62,8.97,3.67,7.5,8.09,13.63,13.51,18.73,1.37,1.29,2.87,2.47,4.02,3.35,1.55,1.19,3.22,2.23,4.96,3.1,5.14,2.57,10.7,4.35,16.54,5.29,4.12,.66,7.67,1.1,11.24,1.1,.49,0,.97,0,1.46-.03,1.83-.06,3.78-.07,6.31-.03,4.07,.08,8.22-.2,12.71-.83,3.77-.53,7.56-1.45,11.27-2.73,.67-.23,1.28-.6,1.87-.96l.26-.16c1.1-.66,2.01-2.85,1.7-4.11-.25-1.01-.48-1.91-.81-2.81-.21-.57-.54-1.15-.95-1.63-2.15-2.52-4.9-3.51-8.19-2.93-1.18,.21-2.58,.46-3.99,.82-1.99,.5-4.13,.81-6.74,.95l-1.21,.07c-2.22,.13-4.51,.27-6.75,0-.39-.05-.77-.04-1.4-.03-.38,0-.85,.02-1.49,.02h-.03c-.1,0-.26,.02-.46,.03-.69,.05-1.88,.14-3.02,.14-1.23,0-2.49-.09-3.71-.17-.48-.03-.96-.06-1.44-.09-4.16-.24-8.39-1.17-13.31-2.92-3.88-1.38-7.25-3.59-10.32-6.75-3.44-3.56-6.35-7.65-8.88-12.52-.83-1.6-1.38-3.15-1.67-4.73-.67-3.63-.49-7.19,.53-10.59,1.25-4.15,3.08-7.91,5.44-11.2,1.7-2.37,3.67-4.75,6.2-7.5,.61-.66,1.22-1.32,1.83-1.98,1.09-1.17,2.18-2.34,3.25-3.54,2.46-2.76,4.27-5.44,5.55-8.21,2.02-4.37,2.24-9.03,.65-13.83-.82-2.48-1.99-4.88-3.57-7.35-1.22-1.9-2.59-3.73-3.92-5.5l-.81-1.07c-1.72-2.3-3.25-4.44-4.66-6.55-1.77-2.63-2.82-5.73-3.2-9.5-.03-.34-.03-.69,.01-1.04,.37-3.21,1.28-5.99,2.77-8.49,1.13-1.9,2.53-3.7,4.15-5.35,4.07-4.14,8.61-7.66,13.51-10.46,4.32-2.47,9.07-4,14.51-4.68,1.15-.14,2.27-.16,3.33-.04,4.61,.51,8.54,1.57,12.02,3.24,6.31,3.03,12.13,7.38,17.29,12.91,1.57,1.69,2.88,3.55,3.86,5.53,1.81,3.62,2.43,6.98,1.9,10.28-.41,2.52-1.24,4.81-2.47,6.81-1.18,1.91-2.52,3.78-3.81,5.58l-.07,.09c-.53,.74-1.09,1.46-1.65,2.18-.61,.78-1.24,1.59-1.82,2.42-1.36,1.93-2.51,3.66-3.51,5.31-1.58,2.6-2.72,5.53-3.39,8.71-.51,2.4-.45,4.78,.17,7.07,.6,2.21,1.41,4.16,2.49,5.95,1.45,2.4,2.91,4.4,4.49,6.11l4.3,4.65c1.92,2.08,4.42,4.87,6.62,7.9,3.08,4.24,5.18,8.91,6.26,13.89,.64,2.93,.6,5.66-.1,8.32-.17,.64-.36,1.28-.55,1.91-.3,1.01-.61,2.05-.84,3.1-.43,2.01,0,3.95,1.23,5.46,1.17,1.45,3,2.35,4.76,2.35h.21c.51,0,1.03,0,1.54-.03,1.88-.11,3.47-1.01,4.71-2.69,.63-.85,1.14-1.88,1.6-3.22,2.18-6.36,2.47-12.94,.85-19.56Z"/><path class="cls-2" d="M669.85,692.97l-.2-.25c-2.74-3.44-5.78-6.69-8.72-9.83-1.82-1.95-3.71-3.96-5.49-5.99-.32-.37-.69-.7-1.04-1.02l-.24-.22c-3.04-2.79-5.92-4.93-8.83-6.57-2.67-1.5-5.61-2.48-8.51-2.85-1.34-.18-2.36,0-3.36,.18l-.55,.09c-2.92,.47-5.56,1.79-7.85,3.92-1.26,1.17-2.11,2.55-2.51,4.11-.18,.7-.23,1.33-.16,1.89,.25,1.8,1.08,3.21,2.46,4.19,1.88,1.33,3.93,1.5,5.94,.49,.73-.36,1.41-.81,2.07-1.24,.46-.3,.91-.6,1.38-.87,.74-.43,1.54-.52,2.38-.28,1.7,.48,3.33,1.29,4.98,2.45,2.82,2,5.16,4.1,7.14,6.45,1.65,1.95,3.42,3.84,5.13,5.66,2.15,2.29,4.37,4.67,6.36,7.16,.57,.71,1.29,1.41,2.16,2.06,1.18,.9,2.45,1.35,3.77,1.35,.88,0,1.78-.2,2.69-.6,1.13-.5,2.01-1.39,2.61-2.64,.9-1.87,.77-3.82-.39-5.95-.33-.61-.77-1.15-1.19-1.68Z"/></g><path class="cls-2" d="M1076.99,220.9c-.58-2.05-1.51-4.11-2.75-6.12-.87-1.41-2.12-2.53-3.59-3.25-1.81-.87-3.59-1.32-5.28-1.34-1.48-.02-2.78,.57-3.6,1.56-.74,.89-1,2.02-.75,3.26,.4,2,1.05,3.94,1.68,5.76,1.45,4.18,1.65,8.46,.58,12.7-.08,.32-.14,.64-.21,.96-.06,.33-.13,.65-.21,.98-1.12,4.29-2.78,7.95-5.07,11.19-3.77,5.34-8.61,9.73-14.39,13.04-8.14,4.67-17.35,7.39-27.38,8.09-5.12,.36-10.76,.37-17.74,.02-4.05-.2-8.2-1.11-12.69-2.77-2.03-.75-3.9-1.83-5.54-3.2-1.19-.99-2.11-2.14-2.72-3.42-1.76-3.66-2.44-7.45-2.03-11.26,.84-7.78,3.96-14.89,9.29-21.13,2.55-2.99,5.83-5.48,9.76-7.4,2.4-1.18,4.58-2.04,6.66-2.62,1.16-.33,2.32-.64,3.48-.95l1.61-.43c2.1-.57,4.86-1.36,7.57-2.47,2.04-.83,3.94-1.93,5.81-3.34,2.59-1.96,4.48-4.49,5.64-7.52,1.49-3.93,1.25-7.71-.72-11.23-1.19-2.14-2.77-3.97-4.81-5.62-2.59-2.08-5.71-3.64-9.55-4.78-1.92-.57-3.9-1-5.81-1.42l-1.52-.33c-3.08-.68-6.26-1.37-9.33-2.27-1.81-.53-3.72-1.15-5.44-2.07-5.56-2.98-8.3-8.01-7.71-14.17,.53-5.52,2.5-10.61,6.02-15.56,4.15-5.85,9.64-10.45,16.3-13.68,10.71-5.19,22.18-6.71,35.08-4.64,4.92,.79,9.79,2.16,14.46,4.07,.47,.19,.95,.37,1.44,.54,.35,.12,.7,.25,1.04,.38,1.7,.66,3.44,.48,5.49-.55,.87-.44,1.59-1.12,2.11-1.98,1.2-2,1.42-4.05,.65-6.11-.58-1.54-1.57-2.77-3.04-3.76-1.34-.91-2.88-1.65-4.85-2.35-5.72-2.02-11.17-3.41-16.68-4.25-16.32-2.49-31.84,.37-46.11,8.5-12.48,7.11-20.24,18.77-23.34,27.32-2.33,6.43-3.06,12.44-2.24,18.38,.2,1.44,.5,2.72,.93,3.94,2.55,7.3,7.31,12.78,14.16,16.28,1.93,.99,3.97,1.75,5.53,2.3,2.81,.99,5.85,1.83,9.59,2.65l1.45,.32c1.64,.37,3.33,.74,5.01,1.07,1.63,.31,3.25,.8,4.96,1.48,.9,.36,1.77,.9,2.66,1.64,.38,.32,.58,.78,.56,1.26-.02,.52-.3,1-.75,1.31l-.33,.23c-.42,.3-.82,.59-1.25,.77-1.08,.47-2.35,1-3.64,1.39-1.32,.4-2.68,.75-4,1.09-.57,.15-1.14,.29-1.71,.45-5.01,1.33-9.45,3.09-13.57,5.37-5.11,2.83-9.42,6.38-12.8,10.55-6.38,7.87-10.34,16.76-11.77,26.43-1.04,7.02,.16,14.01,3.56,20.76,1.6,3.18,3.91,5.94,6.87,8.19,1.8,1.37,3.86,2.6,6.3,3.77,5.71,2.72,12.05,4.27,19.92,4.86,2,.15,3.97,.18,5.88,.2,.82,.01,1.62,.02,2.38,.04h.02c5.86-.06,12.09-.21,18.16-1.28,7.67-1.35,14.48-3.49,20.82-6.54,6.78-3.27,12.46-7.23,17.36-12.11,8.93-8.88,14-19.82,15.08-32.5,.24-2.82-.06-5.74-.9-8.67Z"/><path class="cls-2" d="M347.69,766.4c-.36-1.83-1.01-3.6-1.95-5.27-.81-1.46-1.66-2.5-2.67-3.28-1.71-1.33-3.5-1.84-5.33-1.52-1.97,.34-3.53,1.33-4.51,2.86-1.06,1.66-1.35,3.82-.8,5.95,.16,.6,.4,1.18,.63,1.73,.12,.29,.24,.58,.35,.87,1.12,3.02,1.44,6.03,.98,9.22-.66,4.52-2.13,8.91-4.51,13.42-1.91,3.63-4.56,6.57-7.87,8.75-1.17,.77-2.34,1.52-3.52,2.27l-1.52,.97c-3,1.92-5.89,4.11-8.59,6.5-4.15,3.68-7.2,8.26-9.08,13.62-1.16,3.32-1.99,6.72-2.45,10.1-.33,2.42-.68,4.84-1.03,7.26-.47,3.27-.94,6.53-1.37,9.81-.41,3.12-1.14,6.38-2.23,9.98-3.12,10.31-7.02,20.13-11.59,29.17-1.6,3.15-3.2,5.79-4.9,8.06-3.17,4.22-6.93,7.9-10.52,11.24-1.36,1.27-3.97,1.3-5.47,.06l-.35-.29c-.41-.33-.79-.64-1.14-.99-1.75-1.74-3.48-3.5-5.21-5.26-3.83-3.9-7.08-8.5-9.65-13.68-4.99-10.02-9-20.28-11.92-30.5-.9-3.15-1.52-5.98-1.89-8.66-.27-2-.53-4.01-.78-6.02-.26-2.1-.53-4.19-.82-6.29-.61-4.4-1.26-8.69-2.56-12.89-1.95-6.32-5.27-11.54-9.85-15.52-2.75-2.39-5.75-4.63-9.16-6.84-.57-.37-1.14-.73-1.71-1.1-1.09-.69-2.23-1.41-3.31-2.16-2.81-1.93-5.15-4.57-6.95-7.84-1.67-3.04-2.97-6.19-3.86-9.37-.82-2.93-1.14-5.86-.96-8.7,.13-1.99,.37-3.63,1.15-5.13,.33-.63,.55-1.31,.77-1.97,.07-.22,.14-.44,.22-.66,.46-1.33,.27-2.6,.02-3.66-.51-2.16-2.12-3.98-4.19-4.75-2.01-.75-4.17-.4-6.08,.97-1.08,.78-1.89,1.62-2.46,2.55-.66,1.08-1.18,2.09-1.59,3.1-1.3,3.14-1.84,6.56-1.82,11.44v.33c.07,1.99,.15,4.47,.71,6.87,1.45,6.23,3.55,11.69,6.41,16.71,2.96,5.2,6.81,9.4,11.45,12.49,2.03,1.35,3.87,2.54,5.62,3.62,2.23,1.38,4.29,3.03,6.38,4.75,3.06,2.51,5.15,5.85,6.2,9.95,.6,2.31,1.09,4.79,1.47,7.37,.3,2.06,.56,4.17,.8,6.21,.24,2,.49,4.07,.78,6.09,.64,4.38,1.29,7.73,2.12,10.86,3.04,11.48,7.45,23,13.49,35.23,3.22,6.53,7.29,12.35,12.1,17.3l.47,.49c1.23,1.26,2.49,2.56,3.62,3.93,1.7,2.06,3.85,3.73,6.98,5.41,2.72,1.46,5.64,2.2,8.7,2.2,.37,0,.73-.01,1.1-.03,1.92-.11,3.64-.54,5.27-1.32,2.04-.97,3.92-2.28,5.59-3.88,3.65-3.49,6.71-6.69,9.35-9.77,2.42-2.82,4.36-5.56,5.94-8.37,1.18-2.11,2.43-4.36,3.56-6.63,4.47-9,8.37-18.87,11.58-29.36,1.59-5.17,2.65-10.03,3.25-14.86,.19-1.53,.4-3.06,.62-4.59,.32-2.3,.65-4.68,.89-7.04,.21-2.04,.59-4.24,1.17-6.72,.43-1.84,1.07-3.64,1.65-5.16,.7-1.83,1.78-3.48,3.21-4.91,.77-.77,1.58-1.56,2.42-2.26,2.29-1.89,4.39-3.42,6.43-4.67,2.15-1.32,4.21-2.69,6.15-4.05,2.92-2.06,5.38-4.47,7.3-7.15,5.93-8.29,9.3-17.33,10.01-26.86,.22-2.95-.01-6.04-.73-9.73Z"/><path class="cls-2" d="M1052.14,486.79c-.58-1.27-1.4-2.28-2.43-2.99-4.06-2.8-8.04-4.9-12.18-6.41-3.74-1.37-7.75-2.27-11.91-2.69-5.17-.52-10.16-.04-15.25,.55-1.89,.22-3.94,.6-6.27,1.18-5.25,1.3-9.7,3.31-13.62,6.14-1.08,.78-2.3,1.46-3.36,2.04-2.06,1.12-4.09,1.63-6.13,1.56-.38-.03-.76-.05-1.15-.07-.81-.04-1.57-.09-2.31-.2-2.31-.36-4.61-.88-6.82-1.56-2.05-.63-3.63-1.82-4.83-3.65-.54-.82-1-1.75-1.44-2.93-.21-.57-.3-1.22-.25-1.92,.05-.79,.46-1.22,1.21-1.26,.43-.02,.87-.02,1.36,.02,2.02,.14,4.18,.42,7.01,.92,1.79,.31,3.58,.19,5.31-.36,.17-.06,.34-.11,.57-.18,.49-.15,.99-.3,1.51-.51,4.91-2.06,7.4-6.2,6.83-11.37-.15-1.36-.41-2.64-.76-3.81-.56-1.84-1.23-3.63-1.92-5.45-.44-1.17-.9-2.32-1.36-3.48-.61-1.53-1.23-3.11-1.81-4.68-.84-2.3-1.65-4.62-2.45-6.94l-.22-.64c-.42-1.2-.84-2.4-1.26-3.6-.5-1.4-.74-2.9-.73-4.57v-.86c0-.74-.01-1.44,.03-2.15,.26-4.71,1.44-8.62,3.59-11.98,.87-1.36,1.7-2.6,2.55-3.82,.47-.68,.96-1.34,1.5-2.08,.41-.56,.82-1.11,1.21-1.68,1.47-2.07,2.76-4.22,3.84-6.39,2.79-5.63,3.94-11.45,3.41-17.3-.29-3.23-.72-5.89-1.36-8.38-.91-3.55-1.82-6.42-2.87-9.04-.88-2.18-1.82-4.37-2.88-6.7-.91-2-1.65-3.84-2.25-5.6-.57-1.69-.81-3.38-.71-5.02,.3-4.95,1.8-8.79,4.59-11.75,.64-.67,1.3-1.41,1.81-2.33,.88-1.59,1.08-3.17,.58-4.68-.88-2.64-2.88-4.25-5.8-4.64-.57-.07-1.11,.02-1.56,.13-1.63,.39-3.07,1.16-4.28,2.31-1.55,1.48-2.88,3.18-4.05,5.22-2.08,3.62-3.49,7.71-4.19,12.17-.55,3.52-.38,7,.51,10.35,.65,2.45,1.4,4.59,2.27,6.55l.51,1.14c.88,1.97,1.76,3.93,2.6,5.92,1.86,4.4,3.15,8.95,3.83,13.5,.62,4.17,.08,8.12-1.61,11.74-.56,1.2-1.19,2.35-1.88,3.44-.64,1-1.35,2.01-2.06,3.01l-.06,.09c-.36,.51-.72,1.02-1.07,1.53l-.99,1.44c-.93,1.34-1.9,2.73-2.81,4.16-1.63,2.56-2.92,5.45-3.95,8.82-.45,1.47-.7,2.95-.94,4.39l-.14,.85c-1.1,6.36-.66,12.1,1.34,17.56,.08,.22,.15,.44,.24,.73,.08,.24,.15,.49,.24,.73,1.84,5.2,4.05,11.33,6.55,17.46l.24,.59c.42,1.01,.82,1.96,.99,2.94-.55,.02-1.16-.09-1.8-.2l-.34-.06c-2.35-.42-4.9-.78-7.51-.67-5.46,.23-9.52,2.77-12.08,7.56-1.58,2.96-2.1,6.14-1.55,9.46,.61,3.69,2.09,7.12,4.51,10.5,2.65,3.7,6.2,6.32,10.54,7.78,3.71,1.25,7.6,2.08,11.91,2.53,.97,.1,1.94,.15,2.88,.15,1.45,0,2.88-.12,4.23-.37,3.43-.62,6.67-1.84,9.63-3.64,1.4-.85,2.74-1.72,3.98-2.58,2.18-1.52,4.79-2.65,7.98-3.47,2.79-.71,5.13-1.11,7.35-1.24,.27-.02,.53-.03,.81-.04,.78-.04,1.6-.07,2.42-.2,2.81-.44,5.65-.17,8.33,.15,4.05,.48,7.88,1.69,11.71,3.7,.87,.45,1.71,.94,2.59,1.45,.62,.36,1.25,.72,1.88,1.07,.69,.38,1.37,.74,2.13,.98,2.56,.82,4.89,.32,6.75-1.44,1.93-1.82,2.48-4.53,1.38-6.91Z"/><path class="cls-2" d="M1181.32,763.87c-.03-.52-.05-1.05-.08-1.57-.06-1.21-.11-2.41-.21-3.61-.18-2.26-.79-4.47-1.81-6.56-1.14-2.34-2.9-3.82-5.24-4.41-3.49-.88-7.14,.93-8.48,4.19-.47,1.15-.67,2.17-.59,3.11,.09,1.07,.23,2.15,.36,3.2,.08,.65,.17,1.3,.24,1.96,.49,4.44,.02,8.65-1.45,12.89-1.76,5.08-4.52,9.51-7.24,13.53-2.96,4.38-6.76,7.77-11.28,10.06-1.33,.67-2.65,1.35-3.97,2.03-1.53,.79-3.06,1.57-4.59,2.35-3.82,1.93-7.2,3.85-10.32,5.9-7.3,4.78-12.38,11.17-15.09,19.01-1.23,3.55-2.09,6.49-2.72,9.27-.25,1.11-.48,2.22-.7,3.33-.35,1.7-.71,3.46-1.14,5.16-.11-.02-.22-.06-.21-.05l-.1-.19c-.3-.55-.6-1.12-.75-1.69-.33-1.34-.64-2.68-.95-4.02-.3-1.3-.59-2.6-.92-3.89-.86-3.47-2.21-6.98-3.99-10.44-1.47-2.85-3.39-5.5-5.7-7.88-2.38-2.46-5.26-4.72-8.8-6.91-3.18-1.97-6.46-3.71-10.41-5.71-1.59-.81-3.17-1.65-4.74-2.48-1.03-.55-2.07-1.1-3.11-1.64-3.72-1.94-6.87-4.77-9.63-8.66-2.11-2.96-3.73-5.53-5.09-8.08-.93-1.73-1.72-3.52-2.37-5.33-2.13-5.98-2.58-10.96-1.42-15.67,.21-.85,.33-1.82,.36-3.04,.1-3.61-2.37-7.45-7.3-7.8-.28-.02-.57,0-.87,.06-2.94,.59-4.99,2.09-6.11,4.44-.52,1.1-1.04,2.29-1.32,3.55-.93,4.11-1.14,8.37-.62,12.67,.46,3.82,1.41,7.6,2.93,11.56,1.93,5.05,4.71,10.06,8.99,16.24,4.01,5.78,8.99,10.32,14.8,13.48,1.78,.97,3.57,1.9,5.37,2.83,1.27,.66,2.54,1.32,3.8,1.99,2.55,1.36,5.19,2.76,7.78,4.23,1.13,.64,2.33,1.42,3.67,2.39,3.52,2.56,6,5.79,7.35,9.6,.75,2.11,1.4,4.24,1.93,6.31,1.41,5.58,2.35,11.58,2.96,18.89,.55,6.56,1.04,13.06,1.5,19.16,.28,3.67,.6,6.72,1.01,9.59,.43,2.97,.8,5.99,1.17,8.92,.33,2.65,.66,5.3,1.03,7.95,.48,3.44,1.14,6.88,1.65,9.5,.28,1.44,1.07,2.8,2.35,4.04,1.37,1.34,3.2,2.08,5.11,2.08,.23,0,.47-.01,.7-.03,2.15-.2,4.03-1.32,5.3-3.14,1.74-2.5,2.87-5.32,3.36-8.38,1.12-6.98,2.14-14.42,3.12-22.73l.09-.8c.71-6.01,1.45-12.22,1.61-18.4,0-.3,.04-.59,.08-.89,.02-.18,.04-.37,.06-.55,.12-1.38,.24-2.75,.36-4.13,.26-2.99,.52-6.09,.84-9.12,.64-6.08,1.62-11.52,3-16.64,.64-2.38,1.51-4.68,2.57-6.81,1.08-2.17,2.55-4.08,4.36-5.66,1.97-1.72,3.92-3.1,5.94-4.2,1.95-1.06,3.91-2.1,5.87-3.14,1.09-.58,2.17-1.15,3.26-1.73l2.01-1.07c2.16-1.15,4.32-2.3,6.46-3.49,5.08-2.81,9.52-6.86,13.17-12.02,2.02-2.85,3.88-5.88,5.62-8.73,1.76-2.89,3.28-6.22,4.63-10.18,1.85-5.4,2.63-9.7,2.53-13.94v-.02Z"/><path class="cls-2" d="M464.07,502.04c-.39-.36-.88-.68-1.49-1-.71-.37-1.42-.69-2.11-.94-2.17-.79-4.18-1.82-6.03-2.81-2.33-1.25-4.22-2.61-5.78-4.16-1.52-1.51-2.59-3.12-3.28-4.92-1.43-3.76-2.19-7.28-2.3-10.76-.07-2.14-.07-4.21,0-6.14,.04-1.21,.19-2.5,.45-3.81,.81-4.16,1.65-8.32,2.49-12.48l.59-2.92c.19-.96,.4-1.92,.6-2.88,.34-1.61,.68-3.21,.98-4.82,.58-3.06,.72-6.12,.42-9.08-.12-1.17-.35-2.28-.7-3.39-.94-2.99-2.16-5.79-3.62-8.32-1.46-2.52-3.03-5.04-4.39-7.2-1.03-1.64-2.12-3.27-3.17-4.85l-.53-.79c-2.17-3.25-3.26-6.9-3.26-10.84v-.62c0-.73,0-1.46,0-2.19-.03-1.96,.19-4.05,.69-6.58,.73-3.69,1.81-7.14,3.16-11.28,.45-1.39,.91-2.78,1.36-4.16,.65-1.99,1.31-3.98,1.95-5.97l.48-1.51c.67-2.12,1.37-4.32,2.21-6.42,.71-1.77,1.26-3.74,1.67-6.03,.59-3.25,.05-6.37-1.65-9.52-1-1.87-2.51-3.39-4.49-4.52-1.69-.97-3.52-1.61-5.45-1.89-.96-.14-1.94-.24-2.91-.34-.71-.07-1.41-.15-2.12-.24-3.27-.42-6.58,.11-10.11,1.6-.94,.4-1.95,.88-3.07,1.46-2.37,1.22-4.57,1.9-6.74,2.07-1.33,.1-2.65,.53-3.92,1.26-2.56,1.47-3.81,3.71-3.61,6.47,.19,2.6,1.62,4.51,4.11,5.51,1.43,.58,2.78,.77,4.1,.58l.91-.14c.79-.12,1.6-.24,2.39-.3,1.89-.14,3.76-.68,6.07-1.75,.89-.41,1.77-.86,2.64-1.31,.63-.32,1.25-.64,1.89-.95,.47-.23,1-.39,1.5-.55,1.37-.42,3.13,.13,4.02,1.25,.48,.61,.73,1.41,.72,2.31-.03,1.68-.25,3.32-.65,4.88-.98,3.76-2.21,8.1-4.28,12.02-1.26,2.39-2.19,4.87-3.2,7.86-1.04,3.07-1.66,6.35-1.91,10.02-.36,5.23,.38,10.43,1.09,15.46l.04,.29c.04,.27,.11,.54,.19,.81l.09,.33c.84,3.41,2.04,6.32,3.69,8.92,.96,1.51,1.93,3.01,2.9,4.5l1.55,2.39c1.33,2.05,2.7,4.18,3.8,6.4,1.18,2.4,1.83,4.87,1.95,7.34,.04,.92,.04,1.83,.04,2.75v.59c0,3.07-.56,6.14-1.1,9.11-.12,.64-.23,1.27-.34,1.91-.43,2.45-.94,4.93-1.42,7.33-.36,1.77-.72,3.55-1.06,5.32-.76,4.05-1.05,7.74-.89,11.63l.11,1.32c.09,1.05,.19,2.22,.28,3.38,.32,4.37,1.39,8.68,3.27,13.17,1.37,3.26,3.27,6.13,5.66,8.52,2.24,2.25,4,3.93,5.71,5.44,2.74,2.42,5.33,3.74,8.15,4.13,.51,.07,1.01,.25,1.55,.44,.35,.13,.71,.25,1.07,.35,.96,.26,2.14,.58,3.31,.8,.43,.08,.87,.12,1.29,.12,1.2,0,2.35-.31,3.39-.92,1.93-1.13,3.21-3.05,3.43-5.14,.21-2.04-.63-4.03-2.36-5.6Z"/><g><path class="cls-2" d="M1153.98,1107.44c-.59-3.77-1.27-6.83-2.15-9.61-2.46-7.81-6.78-14.7-12.85-20.47-2.57-2.45-5.38-4.86-8.33-7.16-4.05-3.16-8.17-6.09-12.23-8.71-2.52-1.63-5.07-3.52-7.82-5.79-3.17-2.62-5.31-5.88-6.37-9.77-.24-.88-.49-1.79-.68-2.69-.74-3.48-1.11-6.63-1.14-9.61-.03-3.43-.52-6.81-.96-9.8-1.15-7.9-3.82-15.6-7.93-22.89-2.91-5.16-6.97-9.61-12.07-13.24-2-1.43-4.2-2.59-6.71-3.55-1.64-.63-3.43-1.13-5.62-1.56-3.82-.76-7.55-.79-11.07-.11-4,.78-7.7,2.06-10.98,3.82-4.22,2.25-8.04,4.96-11.35,8.05-4.25,3.96-7.51,8.57-9.68,13.71-2.06,4.86-2.74,9.55-2.07,14.33,.15,1.07,.33,2.15,.5,3.22,.1,.64,.21,1.27,.31,1.91l.26,1.66c.24,1.5,.49,3.06,.68,4.59,.21,1.67,.15,3.5-.16,5.6-.31,2.08-1.08,3.95-2.28,5.58-1.02,1.38-1.96,2.53-2.88,3.52-1.29,1.4-2.62,2.76-3.94,4.13-.81,.84-1.62,1.68-2.43,2.52l-.44,.46c-1.94,2.04-3.95,4.14-5.89,6.25-2.39,2.59-4.77,5.63-7.5,9.57-5.06,7.3-8.55,15.44-10.67,24.88-.75,3.36-1.15,6.79-1.53,10.3-.13,1.18-.22,2.36-.32,3.54l-.14,1.65c-.06,1.88,.2,3.72,.45,5.51,.09,.67,.19,1.34,.27,2.02,.36,3.11,1.22,6.32,2.69,10.11,1.23,3.15,2.87,6.05,4.89,8.61,4.67,5.95,10.91,9.34,18.53,10.07,4.81,.46,9.61-.35,14.29-2.43,3.82-1.69,7.31-3.85,10.37-6.42,2.49-2.09,4.86-4.42,7.03-6.91,3.09-3.56,5.69-6.81,7.94-9.92,2.46-3.4,4.35-5.97,6.15-8.33,2.78-3.66,5.85-7.1,9.14-10.24,4.11-3.93,8.97-6.35,14.44-7.21,2.94-.46,5.57,.15,7.8,1.82,2.45,1.83,5.3,4.06,7.83,6.66,.86,.89,1.65,1.68,2.51,2.43,1.23,1.07,2.81,1.58,4.58,1.61,3.31,0,6.03-2.36,6.47-5.6,.27-2.01-.12-3.79-1.17-5.29-.54-.77-1.12-1.59-1.81-2.32-3.56-3.84-7.64-7.22-12.47-10.35-1.42-.92-3-1.64-4.82-2.2-4-1.23-8.3-1.36-12.78-.41-7.4,1.58-13.96,4.93-19.48,9.97-.89,.81-1.74,1.63-2.51,2.42-3.88,3.98-7.09,7.71-9.8,11.4l-1.06,1.45c-1.69,2.3-3.38,4.6-5.08,6.9-2.41,3.26-4.98,6.39-7.64,9.3-1.72,1.88-3.55,3.56-5.45,4.99-2.77,2.1-5.56,3.49-8.52,4.28-2.26,.6-4.48,.63-6.59,.1-3.08-.77-5.49-2.41-7.16-4.87l-.15-.22c-.47-.7-.97-1.41-1.34-2.16-1.85-3.65-2.85-7.18-3.08-10.8-.4-6.36,.26-12.83,1.95-19.23,1.75-6.62,4.57-12.67,8.38-18,1.71-2.39,3.58-4.9,5.68-7.16,1.38-1.48,2.77-2.95,4.17-4.41,.99-1.04,1.97-2.07,2.96-3.11l.92-.97c2.03-2.15,4.13-4.38,6.16-6.61,4.22-4.62,6.74-10.08,7.48-16.22,.27-2.25,.49-4.92,.05-7.6l-.38-2.34c-.37-2.25-.73-4.51-1.14-6.76-.35-1.92-.44-3.94-.27-6.18,.05-.62,.2-1.32,.46-2.13,1.1-3.41,3.04-6.51,5.93-9.48,1.92-1.98,4.19-3.76,7.14-5.6,2.58-1.61,5.38-2.75,8.33-3.4,3.84-.84,7.76-.3,11.98,1.67,.33,.15,.65,.36,.92,.55,3.45,2.35,6.03,4.96,7.89,7.98,3.37,5.45,5.64,11.52,6.76,18.05,.76,4.41,1.15,8.32,1.2,11.95,.04,3.23,.49,6.62,1.36,10.36,2,8.55,6.03,15.08,12.34,19.96l1.23,.96c1.83,1.43,3.73,2.92,5.73,4.21,1.5,.97,2.95,1.94,4.3,2.87,6.21,4.26,11.09,8.09,15.34,12.03,5.12,4.75,8.56,10.59,10.22,17.35,.92,3.77,.94,7.52,.04,11.17-.65,2.63-1.62,5.1-2.89,7.36-2.57,4.55-5.79,8.84-9.59,12.74-2.12,2.17-4.4,3.64-7,4.48-1.1,.35-2.52,.86-3.8,1.61-2.07,1.22-3.37,3.34-3.48,5.66-.11,2.25,.95,4.35,2.9,5.77,1.24,.9,2.59,1.36,3.97,1.36,.45,0,.89-.05,1.34-.15,2.28-.5,4-1.01,5.59-1.68,3.41-1.43,6.53-3.46,9.26-6.03,3.78-3.55,7.26-7.82,10.97-13.45,4.01-6.08,6.52-12.8,7.46-20,.31-2.36,.33-4.18,.07-5.88Z"/><path class="cls-2" d="M1060.93,980h0c2.45,0,4.65-.43,6.9-1.32,8.62-3.42,12.7-12.51,12.27-19.73-.23-3.95-1.4-7.48-3.48-10.49-3.33-4.82-7.73-7.56-13.08-8.15-5.01-.55-9.49,.7-13.29,3.69-4.84,3.81-7.5,8.92-7.88,15.17-.31,4.91,1.01,9.38,3.91,13.28,3.68,4.93,8.6,7.47,14.64,7.54Zm-3.53-25.99c.47-.39,.9-.68,1.31-.89,.88-.44,1.8-.65,2.71-.65,1.84,0,3.61,.87,4.79,2.49,1.15,1.58,1.64,3.26,1.59,5.45-.22,2.42-1.15,4.36-2.77,5.76-1.9,1.64-4.54,1.95-6.91,.78-.24-.12-.5-.3-.82-.58-2.11-1.86-2.94-4.24-2.54-7.26,.29-2.21,1.16-3.88,2.64-5.1Z"/></g><path class="cls-2" d="M1258.21,121c-.56-1.74-1.96-3.11-3.76-3.67-1.51-.47-2.9-.66-4.24-.58-.97,.06-1.83,.23-2.54,.5-.84,.32-1.66,.67-2.56,1.06-.76,.32-1.51,.65-2.29,.94-4.56,1.73-9.27,2.63-13.99,2.67-.76,0-1.51,0-2.27,0h-1.47c-4.81,0-9.49-.89-13.93-2.64-.62-.24-1.23-.49-1.92-.78-.99-.4-1.98-.81-2.98-1.18l-1.6-.6c-2.39-.9-4.87-1.84-7.36-2.67-7-2.33-14.34-3.49-22.44-3.55-4.26-.09-8.95,.53-13.61,1.8-2.3,.63-4.33,1.4-6.19,2.35-5.72,2.93-9.62,7.25-11.57,12.86-.28,.79-.46,1.49-.55,2.15-1.01,6.91,1.42,12.73,7.22,17.31,3.53,2.79,7.94,4.67,13.1,5.6,4.06,.73,8.88,1.35,13.85,.38,.2-.04,.4-.05,.69-.06h.15c3.62-.2,7.02-.95,10.76-1.84,2.54-.61,4.98-1.42,7.26-2.42,.83-.36,1.66-.71,2.48-1.04-.09,.26-.18,.51-.29,.75-.83,1.9-1.9,3.71-2.93,5.38-1.64,2.67-3.76,6.2-5.59,9.95-1.26,2.58-2.16,4.78-2.85,6.93-1.13,3.51-1.74,7.36-1.86,11.76-.09,3.27,.37,6.62,1.39,9.96,1.2,3.94,3.11,7.59,5.69,10.85,.85,1.07,1.75,2.1,2.62,3.1l.16,.18c.38,.44,.77,.88,1.15,1.32,.39,.45,.78,.9,1.17,1.35,.89,1.02,1.82,2.08,2.63,3.15,2.46,3.25,3.25,6.7,2.42,10.54-.56,2.62-1.2,4.72-2.02,6.59-.36,.83-.71,1.66-1.07,2.5-.53,1.25-1.05,2.49-1.61,3.72-1.15,2.56-2.09,5.25-2.78,8.01-1.21,4.81-1.72,8.59-1.63,12.25,.06,2.56,.51,5.09,1.33,7.52,1.7,5.02,4.72,9.12,8.99,12.16,3.08,2.2,6.77,3.93,11.29,5.28,2.38,.71,4.9,1.07,7.51,1.07,1.03,0,2.08-.06,3.14-.17,2.64-.28,4.91-1.74,6.08-3.89,1-1.84,1.03-3.96,.09-5.81-1.1-2.17-3.01-3.47-5.66-3.87-.88-.13-1.75-.13-2.41-.11-2.26,.06-4.39-.59-6.15-1.23-1.89-.69-3.41-1.48-4.63-2.42-1.2-.92-2.12-1.98-2.81-3.25-.52-.96-.82-2.03-1.12-3.16l-.17-.6c-.36-1.28-.43-2.66-.21-4.08,.28-1.79,.63-3.9,1.14-5.98,.63-2.54,1.41-4.83,2.4-7.02l.13-.29c1.35-2.99,2.74-6.08,3.82-9.26,1.34-3.95,1.98-7.66,1.96-11.33-.02-3.51-.88-7.02-2.54-10.41-.9-1.84-2.02-3.61-3.33-5.27-.55-.69-1.07-1.4-1.61-2.13l-.04-.06c1.22-.23,2.49-.22,3.89-.21h.4c2.75,.02,5.35,.66,7.97,1.97,1.42,.71,2.43,1.45,3.2,2.33,.68,.79,1.35,1.59,2.02,2.39l1.49,1.78c.33,.4,.69,.84,1.13,1.26,1.63,1.54,3.92,2.33,6.27,2.16,2.18-.16,4.15-1.16,5.41-2.73,.87-1.1,1.36-2.28,1.44-3.53,.11-1.63-.26-3.18-1.09-4.6-1.88-3.18-4.56-6.13-8.43-9.27-.66-.53-1.43-1.02-2.44-1.55-4.29-2.24-7.82-3.44-11.45-3.89-.48-.06-.95-.15-1.49-.25l-.52-.1c-2.87-.53-5.81-.59-9-.19-1.65,.21-3.81,.53-5.97,1.14-.63,.18-1.26,.34-1.89,.49-.04-.09-.09-.19-.14-.28-.06-.12-.12-.23-.14-.31-.57-2.08-.8-4.14-.71-6.13,.18-3.55,.8-6.6,1.88-9.32,.84-2.11,1.57-3.68,2.38-5.09,.64-1.12,1.28-2.24,1.93-3.36l.29-.5c.65-1.12,1.29-2.24,1.93-3.37,1.36-2.39,2.38-4.25,3.33-6.03,.97-1.81,1.57-3.68,2.03-5.27,.69-2.39,.89-4.62,.59-6.81-.74-5.47-6.02-9.86-12.02-9.99-3.14-.07-5.9,.45-8.44,1.59l-1.06,.48c-.75,.34-1.5,.68-2.26,1l-.92,.39c-.97,.42-1.89,.82-2.83,1.1-6.48,1.97-13.01,2.7-19.41,2.16-2.35-.2-4.64-.93-6.81-2.19-.34-.19-.68-.44-1.01-.73-1.39-1.19-2.46-3.26-1.29-5.49,.86-1.63,2.16-2.85,3.98-3.75,1.78-.87,3.77-1.47,6.1-1.84,3.4-.54,7.05-.94,10.63-.32,.59,.1,1.17,.13,1.74,.17,.18,.01,.36,.02,.54,.03,1.36,.1,2.74,.35,4.02,.6,3.63,.71,7.29,1.79,10.88,3.19l1.27,.49c2.14,.83,4.36,1.7,6.5,2.6,6.08,2.56,13,3.95,21.78,4.35,1.17,.05,2.3-.02,3.39-.1l.52-.04c.56-.04,1.11-.1,1.74-.17,.49-.06,.97-.11,1.46-.14,4.2-.29,8.44-1.17,13.34-2.78,3.84-1.26,7.18-3.31,10.19-6.27,.27-.27,.47-.55,.63-.77l.14-.19c1.02-1.36,1.31-3.08,.78-4.71Z"/><path class="cls-2" d="M177.69,248.59c0-1.93,.1-3.84,.45-5.74,.18-.94,.25-1.9,.36-2.86,.92-7.68,3.01-15.04,6.3-22.05,2.71-5.77,6.3-10.98,10.33-15.89,2.56-3.12,5.31-6.06,8.13-8.94,2.42-2.47,4.82-4.95,7.18-7.48,1.04-1.12,2.01-2.33,2.89-3.57,1.48-2.08,2.28-4.41,2.44-6.97,.18-2.89,.06-5.77-.57-8.59-.55-2.44-.81-4.92-1.22-7.38-.68-4.09,0-8.03,1.32-11.89,1.69-4.99,4.47-9.33,8.01-13.2,3.93-4.29,8.57-7.67,13.7-10.38,4.65-2.46,9.64-3.73,14.86-4.19,.19-.02,.38-.03,.57-.02,6.22,.31,12.2,1.5,17.46,5.07,4.82,3.27,8.89,7.28,11.95,12.29,3.43,5.62,5.85,11.65,7.49,18,.67,2.6,1.11,5.24,1.45,7.92,.36,2.86,.67,5.71,.78,8.59,.12,3.26,.38,6.52,1.21,9.7,.29,1.11,.62,2.21,.97,3.31,1.02,3.19,2.84,5.86,5.35,8.06,2.46,2.15,5.02,4.16,7.77,5.93,3.55,2.29,7.01,4.71,10.4,7.24,3.69,2.76,7.25,5.69,10.61,8.84,2.25,2.11,4.3,4.39,6.11,6.88,2.62,3.59,4.73,7.44,6.2,11.64,1.27,3.64,2.25,7.33,2.77,11.15,.21,1.53,.31,3.06,.16,4.59-.55,5.79-2.05,11.33-4.74,16.5-3.58,6.86-8.2,12.96-13.8,18.32-3.39,3.25-7.38,5.48-11.85,6.86-1.47,.46-2.98,.71-4.54,.57-2.06-.17-3.62-1.17-4.74-2.88-2.34-3.57-.25-7.42,2.4-8.9,.33-.19,.67-.38,1.02-.53,.53-.22,1.07-.44,1.62-.6,3.63-1.03,6.55-3.13,9.04-5.9,3.35-3.72,6.41-7.65,8.81-12.06,1.39-2.55,2.32-5.26,3.05-8.05,.15-.55,.24-1.13,.29-1.7,.29-3.47,.3-6.91-.93-10.24-1.64-6.31-4.98-11.58-9.69-16.04-4.05-3.84-8.44-7.26-12.98-10.48-2.03-1.45-4.09-2.86-6.19-4.21-2.75-1.77-5.31-3.79-7.87-5.81-6.14-4.82-9.86-11.14-11.78-18.63-.86-3.36-1.42-6.77-1.49-10.23-.08-3.85-.79-7.63-1.02-11.47-1.13-7.09-3.38-13.77-7.19-19.89-1.96-3.15-4.57-5.69-7.62-7.74-2.6-1.75-5.5-2.63-8.65-2.83-3.54-.22-6.87,.48-10.06,1.97-4.41,2.05-8.26,4.86-11.54,8.44-1.56,1.71-2.84,3.63-3.9,5.68-1.17,2.25-1.81,4.62-1.73,7.19,.06,1.92,.09,3.85,.55,5.72,.75,2.99,.89,6.08,1.44,9.1,.28,1.52,.22,3.06-.03,4.59-.18,1.14-.38,2.27-.53,3.41-.43,3.09-1.52,5.93-3.06,8.63-1.15,2.01-2.5,3.87-4.06,5.57-2.46,2.69-4.96,5.35-7.5,7.96-2.41,2.48-4.81,4.96-7.09,7.56-2.03,2.31-3.88,4.76-5.64,7.28-4.35,6.22-7.16,13.09-8.73,20.51-1.12,5.3-1.53,10.63-1.25,16.02,.18,3.49,1.05,6.81,2.44,10.01,.7,1.6,1.6,3.06,2.67,4.42,1.33,1.7,3.02,2.93,5,3.78,.35,.15,.71,.31,1.08,.39,3.25,.74,6.49,.72,9.64-.43,2.91-1.06,5.51-2.69,7.9-4.66,1.78-1.47,3.43-3.07,4.96-4.8,2.55-2.87,5-5.83,7.26-8.93,1.81-2.48,3.63-4.96,5.45-7.43,3.08-4.18,6.45-8.11,10.07-11.83,1.88-1.93,3.87-3.73,6.03-5.33,4.22-3.13,8.91-5.27,13.94-6.68,2.41-.68,4.92-.93,7.4-1,2.49-.07,4.99,.3,7.39,1.02,1.28,.38,2.53,.9,3.68,1.62,4.93,3.05,9.36,6.7,13.32,10.92,.65,.69,1.17,1.52,1.7,2.32,1.01,1.52,1.21,3.19,.93,4.97-.51,3.27-4.57,6.25-8.41,4.5-.88-.4-1.71-.88-2.4-1.56-.69-.67-1.35-1.36-2.02-2.05-2.42-2.48-5.1-4.66-7.92-6.66-.62-.44-1.3-.82-1.99-1.16-.51-.25-1.06-.49-1.62-.56-2.69-.33-5.33-.19-7.96,.67-4.47,1.45-8.37,3.78-11.71,7.08-3.56,3.52-6.82,7.29-9.81,11.29-1.61,2.15-3.19,4.33-4.76,6.51-2.47,3.43-5.13,6.71-7.89,9.91-2.51,2.92-5.24,5.61-8.28,7.99-3.5,2.74-7.31,4.92-11.52,6.4-2.74,.97-5.59,1.34-8.45,1.69-1.52,.18-3.07,.07-4.58-.29-2.05-.49-4.12-.85-6.1-1.67-4.56-1.87-8.33-4.71-11.22-8.7-1.81-2.5-3.31-5.16-4.42-8.05-2.17-5.61-3.21-11.43-3.26-17.43Z"/></svg>